<?xml version="1.0" standalone="no"?>
<!DOCTYPE svg PUBLIC "-//W3C//DTD SVG 1.1//EN" "http://www.w3.org/Graphics/SVG/1.1/DTD/svg11.dtd" >
<svg xmlns="http://www.w3.org/2000/svg">
  <metadata>Created by iconfont</metadata>
  <defs>
  <font id="icon" horiz-adv-x="1024">
    <font-face
      font-family="icon"
      font-weight="400"
      font-stretch="normal"
      units-per-em="1024"
      ascent="896"
      descent="-128"
    />
      <missing-glyph />
      
      <glyph glyph-name="icon_shuaxin" unicode="&#59310;" d="M233.088 706.88a426.688 426.688 0 0 0 628.352-567.744L725.312 384h128a341.312 341.312 0 0 1-577.728 246.272z m557.824-645.696A426.688 426.688 0 0 0 162.56 628.928L298.624 384h-128a341.312 341.312 0 0 1 577.728-246.272z"  horiz-adv-x="1024" />
      
      <glyph glyph-name="icon_yidong" unicode="&#59311;" d="M369.792 99.541333a71.125333 71.125333 0 1 1 71.125333-71.125333 71.125333 71.125333 0 0 1-71.125333 71.125333z m0 355.541334A71.125333 71.125333 0 1 1 440.874667 384a71.125333 71.125333 0 0 1-71.082667 71.125333z m0 355.541333a71.125333 71.125333 0 1 1 71.125333-71.125333A71.125333 71.125333 0 0 1 369.792 810.666667z m284.458667-711.125333A71.125333 71.125333 0 1 1 725.333333 28.458667a71.125333 71.125333 0 0 1-71.125333 71.082666z m0 355.541333A71.125333 71.125333 0 1 1 725.333333 384a71.125333 71.125333 0 0 1-71.125333 71.125333z m0 355.541333A71.125333 71.125333 0 1 1 725.333333 739.541333 71.125333 71.125333 0 0 1 654.208 810.666667z"  horiz-adv-x="1024" />
      
      <glyph glyph-name="icon_choose1" unicode="&#59313;" d="M499.8656 372.6848m-420.9152 0a420.9152 420.9152 0 1 1 841.8304 0 420.9152 420.9152 0 1 1-841.8304 0ZM512-42.7008a426.6496 426.6496 0 1 0 426.6496 426.6496A426.6496 426.6496 0 0 0 512-42.7008z m0 298.6496a128 128 0 1 1-128 128A128 128 0 0 1 512 256z"  horiz-adv-x="1024" />
      
      <glyph glyph-name="icon_no_choose1" unicode="&#59317;" d="M512-42.7008a426.6496 426.6496 0 1 0 426.6496 426.6496A426.6496 426.6496 0 0 0 512-42.7008z m0 298.6496a128 128 0 1 1-128 128A128 128 0 0 1 512 256zM513.4848-32.8704c-226.816 0-411.2896 184.5248-411.2896 411.3408 0 226.7648 184.4736 411.2896 411.2896 411.2896s411.2896-184.5248 411.2896-411.2896c0-226.816-184.5248-411.3408-411.2896-411.3408zM513.4848 764.16c-212.6848 0-385.6896-173.056-385.6896-385.6896 0-212.6848 173.056-385.7408 385.6896-385.7408 212.6848 0 385.6896 173.056 385.6896 385.7408 0 212.6336-173.056 385.6896-385.6896 385.6896m0 51.2a436.8896 436.8896 0 1 0 0-873.8304 436.8896 436.8896 0 0 0 0 873.8304z"  horiz-adv-x="1024" />
      
      <glyph glyph-name="icon_zuo" unicode="&#59318;" d="M512-128a512 512 0 1 0 512 512 512.576 512.576 0 0 0-512-512z m0 950.848A438.848 438.848 0 1 1 950.848 384 439.36 439.36 0 0 1 512 822.848zM258.72 369.888s0.224-0.288 0.288-0.448a36.32 36.32 0 0 1 7.52-11.488l181.6-182.112a36.576 36.576 0 0 1 51.776 51.648l-118.08 118.4h348.64a36.576 36.576 0 0 1 0 73.152H380.096l121.28 119.968a36.576 36.576 0 1 1-51.424 52l-183.136-181.152a36.608 36.608 0 0 1-8.096-39.968z"  horiz-adv-x="1024" />
      
      <glyph glyph-name="icon_you" unicode="&#59319;" d="M512-128A512 512 0 1 1 0 384a512.576 512.576 0 0 1 512-512z m0 950.848A438.848 438.848 0 1 0 73.152 384 439.36 439.36 0 0 0 512 822.848zM765.312 369.888s-0.224-0.288-0.288-0.448a36.288 36.288 0 0 0-7.52-11.488l-181.6-182.112a36.576 36.576 0 1 0-51.776 51.648l118.08 118.4H293.344a36.576 36.576 0 0 0 0 73.152h350.656l-121.28 119.968a36.576 36.576 0 1 0 51.424 52l183.136-181.152a36.608 36.608 0 0 0 8.032-39.968z"  horiz-adv-x="1024" />
      
      <glyph glyph-name="icon_linshirenyaun" unicode="&#59309;" d="M469.2992 296.0384v-253.3376h85.3504v253.3376a341.4016 341.4016 0 0 0 298.6496-338.688H170.6496a341.3504 341.3504 0 0 0 298.6496 338.688z m42.7008 45.312a256 256 0 1 0 256 256 256 256 0 0 0-256-256z"  horiz-adv-x="1024" />
      
      <glyph glyph-name="icon_ych" unicode="&#59308;" d="M366.512356-40.0896l25.173333 14.381511a493.892267 493.892267 0 0 1 508.438755-11.616711 486.075733 486.075733 0 0 1 245.088712 442.379378l24.968533 14.381511a510.896356 510.896356 0 0 0-257.063822-479.061333 519.247644 519.247644 0 0 0-546.605511 19.535644z m-209.288534-33.046756L7.264711 185.059556a53.475556 53.475556 0 0 0 19.859911 73.386666L1079.751111 860.393244a54.442667 54.442667 0 0 0 73.955556-19.7632l149.771377-258.190222a53.526756 53.526756 0 0 0-19.911111-73.386666L231.196444-92.899556a54.442667 54.442667 0 0 0-73.955555 19.757512zM1092.642133 838.178133L40.015644 236.293689a27.232711 27.232711 0 0 1-7.583288-6.2976 27.915378 27.915378 0 0 1-2.844445-32.142222l150.266311-258.304a28.495644 28.495644 0 0 1 38.741334-10.24l1052.370488 601.884444a28.040533 28.040533 0 0 1 10.313956 38.439822l-149.959111 258.304a28.444444 28.444444 0 0 1-38.684445 10.24z m-386.434844-886.050133l-17.538845 12.515556 20.6336 6.257777 6.599112 20.4288 12.333511-17.635555 21.617777 0.1024-13.050311-17.095111 6.826667-20.320711-20.4288 7.0144-17.430756-12.6976z m-168.391111 9.3696l-19.808711 8.493511 18.881422 10.4448 2.013867 21.344711 15.837866-14.586311 21.100089 4.6592-9.102222-19.456 10.985244-18.426311-21.458489 2.56-14.290488-16.071111z m322.986666 38.081422l-20.895288 5.3248 16.969955 13.255111-1.342578 21.395911 17.948445-11.975111 20.0704 7.964445-5.882311-20.627911 13.7728-16.5376-21.617778-0.8192-11.605333-18.067911z m-330.678044 53.566578l30.025956 17.197511a331.599644 331.599644 0 0 1 260.158577 29.536711 327.048533 327.048533 0 0 1 156.199823 208.543289l30.025955 17.146311a353.240178 353.240178 0 0 0-173.351822-247.847822 358.354489 358.354489 0 0 0-303.041422-24.564622z m468.923733 58.493156l-21.356089-3.4816 10.24 18.887111-9.910044 19.091911 21.253689-3.7888 15.223467 15.2576 2.941155-21.242311 19.291022-9.6256-19.444622-9.3696-3.248355-21.191111z m-518.8608 111.894755l-44.373333 76.856889 14.188089 8.192 11.696355-20.246756 77.294934 44.629334-20.303645 35.180089-97.553066-56.32-7.765334 13.448533 111.889067 64.591644 35.84-62.077155-91.636622-52.906667 23.472355-40.641422a8.595911 8.595911 0 0 1 13.289245-3.561244l73.750755 42.581333a12.691911 12.691911 0 0 1 5.688889 6.826667c1.080889 3.584-2.56 13.306311-10.632533 29.3376l16.310044 3.504355c8.982756-19.643733 12.868267-32.182044 11.7248-37.376a25.383822 25.383822 0 0 0-11.264-13.596444l-81.584355-47.104a25.213156 25.213156 0 0 0-12.470045-3.879823q-10.325333 0.005689-17.544533 12.561067z m579.214223 40.487822l-16.201956 14.1824 21.202489 4.1472 8.567467 19.655111 10.518755-18.733511 21.515378-1.9968-14.705778-15.7184 4.693333-20.935111-19.603911 9.0112-18.568533-10.9056z m-438.283378 28.068978a60.694756 60.694756 0 0 1 9.819022 4.488533c2.958222 1.706667 3.413333 4.716089 1.086578 8.704l-18.090667 31.3344a341.390222 341.390222 0 0 0-9.3696-12.105955l-11.741867 12.140089a176.719644 176.719644 0 0 1 12.743112 14.449778l-18.090667 31.3344-13.0048-7.503645-7.765333 13.448533 13.0048 7.503645-14.927645 25.867378 13.448533 7.765333 14.927645-25.867378 9.1648 5.290667 7.765333-13.448533-9.1648-5.290667 14.421334-24.979911c2.224356 3.652267 4.221156 7.395556 6.257777 11.3152l8.192-14.193778c-2.059378-3.948089-4.135822-7.509333-6.365866-11.1616l23.978666-41.528889c5.632-9.750756 3.953778-17.425067-4.9152-22.545067l-10.934044-6.320355z m6.257778 86.397156l43.747555 25.258666-3.054933 1.194667a103.480889 103.480889 0 0 1-0.506311 9.756444l-5.848178-8.305777-4.101689 3.350755a326.906311 326.906311 0 0 0-34.975289-27.483022l-8.174933 10.063644a12.834133 12.834133 0 0 1 4.357689 10.200178c0 4.130133-0.335644 9.460622-0.893156 16.236089l-14.631822-8.448-7.338667 12.708978 20.690489 11.946667a120.132267 120.132267 0 0 1-11.377778 8.795022l12.470045 10.154666c3.720533-3.367822 7.697067-7.185067 12.071822-11.377777l20.844089 12.032 7.338667-12.714667-26.902756-15.530667a205.067378 205.067378 0 0 0 0.290133-22.692977c6.138311 4.727467 11.747556 9.346844 16.856178 13.476977-3.350756 2.395022-6.394311 4.585244-9.403733 6.394311l7.873422 8.886045a170.530133 170.530133 0 0 0 20.4288-14.222222 205.562311 205.562311 0 0 1-16.310044 55.222044l13.846755 5.034667a560.622933 560.622933 0 0 0 8.248889-22.823822l23.796622 13.744355 7.594667-13.1584-4.875378-2.844444a229.603556 229.603556 0 0 0 25.9584-68.169956 93.5936 93.5936 0 0 1 32.995556-16.213333l-1.1776-16.054045a94.025956 94.025956 0 0 0-29.741511 13.960534 101.649067 101.649067 0 0 0-3.726223-33.479111l-13.750044 7.429688a92.16 92.16 0 0 1 2.645333 37.398756 267.485867 267.485867 0 0 0-30.953244 30.407111c0.096711-2.895644 0.045511-5.882311-0.091022-8.721067l-8.982756 3.282489 35.151644-60.871111c4.949333-8.578844 2.929778-15.650133-6.087111-20.861155l-8.721066-5.034667-10.012445 10.177422 8.322845 4.016356c3.549867 2.048 4.471467 4.551111 2.844444 7.361422l-4.949333 8.573156-20.394667-11.776 14.336-24.832-12.117333-6.991645z m29.952-23.893334l5.461333-9.454933 20.400355 11.776-5.461333 9.454933z m-11.343645 19.6608l5.376-9.312711 20.394667 11.776-5.376 9.312711z m31.288889 66.332445c0.8192-3.464533 1.467733-6.638933 2.116267-9.807645a289.928533 289.928533 0 0 1 28.717511-31.288889 248.604444 248.604444 0 0 1-20.195556 47.263289zM397.761422 827.630933a519.259022 519.259022 0 0 0 546.673778-19.569777l-25.224533-14.432712a493.897956 493.897956 0 0 1-508.438756 11.770312 485.910756 485.910756 0 0 1-244.832711-442.532978l-25.224533-14.353067a510.902044 510.902044 0 0 0 257.046755 479.118222z m312.439467-332.771555l121.173333 69.973333 72.368356-125.3376-13.596445-7.850667-2.986666 5.1712-94.0032-54.272 2.986666-5.1712-13.596444-7.856355z m20.764444-4.551111l55.04-95.3344 94.0032 54.272-55.04 95.3344z m29.110045-9.801956l59.118933 34.133333 31.573333-54.687288-59.118933-34.133334z m19.837155-4.317867l18.005334-31.186488 32.807822 18.944-18.005333 31.186488zM477.724444 689.811911a358.4 358.4 0 0 0 303.075556 24.547556l-30.025956-17.2032a331.355022 331.355022 0 0 1-260.1472-29.536711 326.7072 326.7072 0 0 1-156.205511-208.543289L304.355556 441.924267a353.240178 353.240178 0 0 0 173.368888 247.887644zM228.619378 485.614933l-16.201956 14.222223 21.202489 4.090311 8.567467 19.712 10.518755-18.7392 21.515378-2.048-14.705778-15.712711 4.744534-20.935112L244.622222 475.283911l-18.568533-10.9568z m77.277866 131.555556l-21.356088-3.413333 10.24 18.887111-9.910045 19.0464 21.259378-3.7888 15.217778 15.251911 2.9184-21.253689 19.291022-9.6256-19.444622-9.312711-3.248356-21.242311z m125.411556 122.038044l-20.946489 5.3248 17.021156 13.255111-1.342578 21.395912 17.897244-11.946667 20.1216 7.879111-5.933511-20.627911 13.7728-16.531911-21.560889-0.8192-11.605333-18.067911z m329.898667 46.683023l-19.859911 8.4992 18.881422 10.439111 2.082133 21.3504 15.837867-14.586311 21.100089 4.6592-9.159111-19.456 10.985244-18.432-21.458489 2.56-14.290489-16.122312z m-184.888889 10.0864l-17.538845 12.515555 20.6848 6.1952 6.5536 20.423111 12.322134-17.635555 21.617777 0.1536-13.050311-17.1008 6.826667-20.371911-20.4288 7.0144-17.379556-12.6976z"  horiz-adv-x="1310" />
      
      <glyph glyph-name="icon_spz1" unicode="&#59312;" d="M366.509994-40.090167l25.173171 14.381419a493.889084 493.889084 0 0 1 508.435479-11.616636 486.072601 486.072601 0 0 1 245.087131 442.376527l24.968373 14.381418a510.893063 510.893063 0 0 0-257.062166-479.058246 519.244298 519.244298 0 0 0-546.601988 19.535518z m-209.287185-33.046542L7.264664 185.057538a53.475211 53.475211 0 0 0 19.859783 73.386194L1079.744153 860.386875a54.442316 54.442316 0 0 0 73.955079-19.763073l149.770412-258.188558a53.526411 53.526411 0 0 0-19.910982-73.386194L231.194955-92.899782a54.442316 54.442316 0 0 0-73.955079 19.757384zM1092.635092 838.171907L40.015387 236.291341a27.232536 27.232536 0 0 1-7.58324-6.297559 27.915198 27.915198 0 0 1-2.844427-32.142015l150.265343-258.302336a28.495461 28.495461 0 0 1 38.741084-10.239934l1052.363707 601.880566a28.040353 28.040353 0 0 1 10.313889 38.439574l-149.958145 258.302336a28.444261 28.444261 0 0 1-38.684195 10.239934z m-386.432354-886.044423l-17.538732 12.515475 20.633467 6.257737 6.599069 20.428668 12.333432-17.635442 21.617638 0.1024-13.050227-17.095001 6.826623-20.32058-20.428669 7.014354-17.430643-12.697518z m-168.390026 9.369539l-19.808584 8.493457 18.881301 10.444732 2.013854 21.344574 15.837764-14.586217 21.099953 4.65917-9.102163-19.455875 10.985173-18.426192-21.45835 2.559983-14.290397-16.071007z m322.984585 38.081177l-20.895154 5.324766 16.969846 13.255025-1.342569 21.395774 17.948329-11.975034 20.07027 7.964393-5.882273-20.627778 13.772711-16.537494-21.617638-0.819194-11.605259-18.067795z m-330.675913 53.566233l30.025762 17.1974a331.597507 331.597507 0 0 1 260.156901 29.536521 327.046426 327.046426 0 0 1 156.198816 208.541945l30.025762 17.1462a353.237901 353.237901 0 0 0-173.350705-247.846225 358.35218 358.35218 0 0 0-303.03947-24.564464z m468.920711 58.492778l-21.355951-3.481577 10.239934 18.886989-9.909981 19.091788 21.253552-3.788775 15.223369 15.257501 2.941136-21.242174 19.290898-9.625538-19.444497-9.36954-3.248334-21.190974z m-554.452605 185.155074l43.451454 25.087838-7.423952 12.856806 13.892177 8.021282 7.395508-12.862495 43.900872 25.343836 42.325061-73.306549-13.749956-7.964393-4.351972 7.537729-30.150917-17.407888 16.895891-29.263456-13.892177-8.021282-16.895891 29.263456-29.712875-17.151889 4.60797-7.964393-13.744267-7.964393z m36.357455-31.231799l7.964393-13.749956 29.712875 17.15189-7.964393 13.749955z m43.599363 25.173171l7.935949-13.744267 30.150917 17.407888-7.913193 13.721511z m-58.703266 0.984171l8.021282-13.892177 29.707186 17.15189-8.015592 13.892177z m43.599364 25.173172l8.021281-13.892178 30.150917 17.407888-8.021281 13.892177z m549.952722-52.866504l-16.201851 14.182308 21.202352 4.147174 8.567412 19.654984 10.518688-18.73339 21.515239-1.996787-14.705683-15.718299 4.693303-20.934976-19.603785 9.011142-18.568414-10.90553z m-436.80714 28.922125a78.107941 78.107941 0 0 1 11.303749 5.347521 5.375965 5.375965 0 0 1 2.099187 8.305724l-17.919885 31.038378a331.347198 331.347198 0 0 0-11.736102-12.0945l-10.996551 11.588192a286.746597 286.746597 0 0 1 14.904792 14.119731l-19.114543 33.097742-15.519189-8.959942-7.759594 13.448447 15.519189 8.959942-15.103903 26.16872 13.596357 7.850616 15.103902-26.16872 13.442758 7.759594 7.765283-13.448446-13.448446-7.759595 16.639893-28.819725c3.413311 3.953752 6.695779 8.197636 9.807581 12.361876l7.67995-13.300537c-3.259712-4.243884-6.610446-8.345546-9.807581-12.361876l22.613188-39.167747c5.631964-9.756382 3.714821-17.368066-5.449921-22.65301l-12.708896-7.338619z m-209.651271 27.937953l55.278577 31.92015c-3.208513 2.48034-6.257737 4.670548-9.346784 6.627513l13.562223 10.979484a231.098244 231.098244 0 0 0 10.239934-9.244385l56.166038 32.426458 16.127896-27.932264-13.596356-7.850616-8.703944 15.075458-98.73572-57.002299 9.136297-15.815009-13.596357-7.850617z m251.714644-3.851353a9.358162 9.358162 0 0 1 1.285681 11.775924l-65.108914 112.770118 13.897866 8.021281 24.23451-41.972351 18.921123 10.922596 7.850616-13.596357-18.909745-10.933974 35.071774-60.745564a130.843601 130.843601 0 0 1 13.624801 16.344072l9.938425-11.406148a289.625156 289.625156 0 0 0-29.724253-32.142015z m42.956523 28.341862l-68.607558 118.828745 13.892178 8.021282 24.23451-41.972352a128.903703 128.903703 0 0 1 16.719537 24.627041l14.699994-6.684401a236.280788 236.280788 0 0 0-23.398249-31.857573l34.559777-59.858103a5.216677 5.216677 0 0 1 7.964393-2.503095l6.058628 3.498644a7.048488 7.048488 0 0 1 3.805842 6.729913c0.113777 3.214202-3.356423 11.269616-10.239934 24.23451l15.103903 3.197135c8.6243-17.680953 12.447209-29.070035 11.377704-34.025025a18.557036 18.557036 0 0 0-9.915669-11.838502l-13.004717-7.509285a18.915434 18.915434 0 0 0-9.36385-2.895625 16.429405 16.429405 0 0 0-13.869422 10.006691zM397.758859 827.624775a519.255676 519.255676 0 0 0 546.670255-19.569652l-25.224371-14.432618a493.894773 493.894773 0 0 1-508.435479 11.770235 485.907624 485.907624 0 0 1-244.831133-442.530126l-25.224371-14.352974a510.898752 510.898752 0 0 0 257.045099 479.115135zM809.523672 445.999501l-38.428197-22.186524 4.863969-8.42519-14.040087-8.106614-41.215735 71.389406 52.468284 30.293138-14.791016 25.571391 14.483818 8.362613 14.791016-25.571391 52.610505 30.378471 41.215735-71.389407-14.040088-8.106614-4.863968 8.42519-38.576107-22.271856 28.586482-49.493015-14.483817-8.362612z m-66.844014 27.033426l20.479868-35.475683 38.428197 22.186524-20.479868 35.469994z m52.906326 30.543447l20.479868-35.469993 38.576107 22.271856-20.479868 35.469994zM477.692922 689.806641a358.39769 358.39769 0 0 0 303.073602 24.547397l-30.025762-17.203089a331.352887 331.352887 0 0 1-260.145524-29.536521A326.705095 326.705095 0 0 1 334.390734 459.072483l-30.03714-17.151889a353.237901 353.237901 0 0 0 173.367772 247.886047zM228.617904 485.610979l-16.201851 14.222131 21.202353 4.090284 8.567411 19.711873 10.518688-18.739079 21.515239-2.047987-14.705683-15.71261 4.744503-20.934976L244.620646 475.280023l-18.568414-10.956729z m77.277369 131.554708l-21.355951-3.413312 10.239934 18.88699-9.909981 19.046277 21.259241-3.788776 15.21768 15.251813 2.918381-21.253552 19.290898-9.625538-19.444497-9.312651-3.248335-21.242174z m125.410747 122.037258l-20.946353 5.324765 17.021045 13.255026-1.342569 21.395773 17.897129-11.946589 20.121471 7.87906-5.933473-20.627778 13.772711-16.531805-21.56075-0.819195-11.605258-18.067794z m329.896541 46.682721l-19.859783 8.499145 18.881301 10.439044 2.082119 21.350263 15.837765-14.586218 21.099953 4.65917-9.159052-19.455874 10.985174-18.431881-21.458351 2.559983-14.290397-16.122207z m-184.887697 10.086335l-17.538732 12.515475 20.684667 6.19516 6.553558 20.42298 12.322054-17.635442 21.617638 0.153599-13.050227-17.10069 6.826623-20.37178-20.428669 7.014355-17.379443-12.697518z"  horiz-adv-x="1310" />
      
      <glyph glyph-name="icon_ybh1" unicode="&#59314;" d="M366.512356-40.0896l25.173333 14.381511a493.892267 493.892267 0 0 1 508.438755-11.616711 486.075733 486.075733 0 0 1 245.088712 442.379378l24.968533 14.381511a510.896356 510.896356 0 0 0-257.063822-479.061333 519.247644 519.247644 0 0 0-546.605511 19.535644z m-209.288534-33.046756L7.264711 185.059556a53.475556 53.475556 0 0 0 19.859911 73.386666L1079.751111 860.393244a54.442667 54.442667 0 0 0 73.955556-19.7632l149.771377-258.190222a53.526756 53.526756 0 0 0-19.911111-73.386666L231.196444-92.899556a54.442667 54.442667 0 0 0-73.955555 19.757512zM1092.642133 838.178133L40.015644 236.293689a27.232711 27.232711 0 0 1-7.583288-6.2976 27.915378 27.915378 0 0 1-2.844445-32.142222l150.266311-258.304a28.495644 28.495644 0 0 1 38.741334-10.24l1052.370488 601.884444a28.040533 28.040533 0 0 1 10.313956 38.439822l-149.959111 258.304a28.444444 28.444444 0 0 1-38.684445 10.24z m-386.434844-886.050133l-17.538845 12.515556 20.6336 6.257777 6.599112 20.4288 12.333511-17.635555 21.617777 0.1024-13.050311-17.095111 6.826667-20.320711-20.4288 7.0144-17.430756-12.6976z m-168.391111 9.3696l-19.808711 8.493511 18.881422 10.4448 2.013867 21.344711 15.837866-14.586311 21.100089 4.6592-9.102222-19.456 10.985244-18.426311-21.458489 2.56-14.290488-16.071111z m322.986666 38.081422l-20.895288 5.3248 16.969955 13.255111-1.342578 21.395911 17.948445-11.975111 20.0704 7.964445-5.882311-20.627911 13.7728-16.5376-21.617778-0.8192-11.605333-18.067911z m-330.678044 53.566578l30.025956 17.197511a331.599644 331.599644 0 0 1 260.158577 29.536711 327.048533 327.048533 0 0 1 156.199823 208.543289l30.025955 17.146311a353.240178 353.240178 0 0 0-173.351822-247.847822 358.354489 358.354489 0 0 0-303.041422-24.564622z m468.923733 58.493156l-21.356089-3.4816 10.24 18.887111-9.910044 19.091911 21.253689-3.7888 15.223467 15.2576 2.941155-21.242311 19.291022-9.6256-19.444622-9.3696-3.248355-21.191111z m-518.8608 111.894755l-44.373333 76.856889 14.188089 8.192 11.696355-20.246756 77.294934 44.629334-20.303645 35.180089-97.553066-56.32-7.765334 13.448533 111.889067 64.591644 35.84-62.077155-91.636622-52.906667 23.472355-40.641422a8.595911 8.595911 0 0 1 13.289245-3.561244l73.750755 42.581333a12.691911 12.691911 0 0 1 5.688889 6.826667c1.080889 3.584-2.56 13.306311-10.632533 29.3376l16.310044 3.504355c8.982756-19.643733 12.868267-32.182044 11.7248-37.376a25.383822 25.383822 0 0 0-11.264-13.596444l-81.584355-47.104a25.213156 25.213156 0 0 0-12.470045-3.879823q-10.325333 0.005689-17.544533 12.561067z m579.214223 40.487822l-16.201956 14.1824 21.202489 4.1472 8.567467 19.655111 10.518755-18.733511 21.515378-1.9968-14.705778-15.7184 4.693333-20.935111-19.603911 9.0112-18.568533-10.9056z m-422.872178 37.546667c6.257778 2.844444 10.496 4.681956 12.862578 6.047289 7.685689 4.437333 10.928356 9.068089 10.012444 14.057244-0.847644 5.2224-7.042844 17.999644-18.733511 38.252089l-40.96-23.637333-23.751111 56.843378 14.023111 7.111111 16.9984-42.416356 15.223467 8.789334-21.418667 51.091911-37.688889-21.76-7.68 13.300622 52.1728 30.122667 28.2112-64.904534 10.934044 6.320356c20.138667-34.884267 29.974756-56.007111 29.792712-63.203556-0.329956-7.281778-5.888-14.040178-16.822045-20.349155-3.845689-2.224356-7.856356-4.141511-12.162844-6.257778z m-32.221867 14.506667a342.8352 342.8352 0 0 1 35.572622 30.196622l7.509334-13.010489a299.184356 299.184356 0 0 0-33.462045-29.764267z m75.662222 5.455644a99.794489 99.794489 0 0 1 18.397867 37.421511 152.547556 152.547556 0 0 0-42.279822 25.452089l7.839289 13.385956a130.048 130.048 0 0 1 36.977777-22.755556 139.019378 139.019378 0 0 1-4.733155 45.744356l15.780978 2.019555a166.508089 166.508089 0 0 0 4.448711-52.417422 116.110222 116.110222 0 0 1 43.036444-1.137778l-1.319822-17.5104a126.219378 126.219378 0 0 0-44.333511 2.383645 112.890311 112.890311 0 0 0-17.993956-39.156623zM397.761422 827.630933a519.259022 519.259022 0 0 0 546.673778-19.569777l-25.224533-14.432712a493.897956 493.897956 0 0 1-508.438756 11.770312 485.910756 485.910756 0 0 1-244.832711-442.532978l-25.224533-14.353067a510.902044 510.902044 0 0 0 257.046755 479.118222z m312.439467-332.771555l121.173333 69.973333 72.368356-125.3376-13.596445-7.850667-2.986666 5.1712-94.0032-54.272 2.986666-5.1712-13.596444-7.856355z m20.764444-4.551111l55.04-95.3344 94.0032 54.272-55.04 95.3344z m-97.28-92.626489a130.986667 130.986667 0 0 1 23.711289 36.750222 322.377956 322.377956 0 0 1-38.115555-1.524622l1.0752 15.200711a383.533511 383.533511 0 0 0 42.0352 1.609955 131.982222 131.982222 0 0 1 3.191466 29.627734l15.030045 0.568889a145.453511 145.453511 0 0 0-2.889956-30.833778c11.582578-0.603022 23.04-1.672533 34.224356-3.299556l-0.796445-16.031289a355.879822 355.879822 0 0 1-37.637689 4.084623 128.904533 128.904533 0 0 0-25.6-43.360711z m126.390045 82.813155l59.118933 34.133334 31.573333-54.687289-59.118933-34.133334z m19.837155-4.317866l18.005334-31.186489 32.807822 18.944-18.005333 31.186489zM477.724444 689.811911a358.4 358.4 0 0 0 303.075556 24.547556l-30.025956-17.2032a331.355022 331.355022 0 0 1-260.1472-29.536711 326.7072 326.7072 0 0 1-156.205511-208.543289L304.355556 441.924267a353.240178 353.240178 0 0 0 173.368888 247.887644zM228.619378 485.614933l-16.201956 14.222223 21.202489 4.090311 8.567467 19.712 10.518755-18.7392 21.515378-2.048-14.705778-15.712711 4.744534-20.935112L244.622222 475.283911l-18.568533-10.9568z m77.277866 131.555556l-21.356088-3.413333 10.24 18.887111-9.910045 19.0464 21.259378-3.7888 15.217778 15.251911 2.9184-21.253689 19.291022-9.6256-19.444622-9.312711-3.248356-21.242311z m125.411556 122.038044l-20.946489 5.3248 17.021156 13.255111-1.342578 21.395912 17.897244-11.946667 20.1216 7.879111-5.933511-20.627911 13.7728-16.531911-21.560889-0.8192-11.605333-18.067911z m329.898667 46.683023l-19.859911 8.4992 18.881422 10.439111 2.082133 21.3504 15.837867-14.586311 21.100089 4.6592-9.159111-19.456 10.985244-18.432-21.458489 2.56-14.290489-16.122312z m-184.888889 10.0864l-17.538845 12.515555 20.6848 6.1952 6.5536 20.423111 12.322134-17.635555 21.617777 0.1536-13.050311-17.1008 6.826667-20.371911-20.4288 7.0144-17.379556-12.6976z"  horiz-adv-x="1310" />
      
      <glyph glyph-name="icon_ytg1" unicode="&#59315;" d="M366.51203-40.089678l25.173311 14.381498a493.891828 493.891828 0 0 1 508.438303-11.616701 486.075301 486.075301 0 0 1 245.088494 442.378985l24.968511 14.381498a510.895901 510.895901 0 0 0-257.063594-479.060907 519.247183 519.247183 0 0 0-546.605025 19.535627z m-209.288348-33.046726L7.264705 185.059277a53.475508 53.475508 0 0 0 19.859893 73.386602L1079.750151 860.392366a54.442618 54.442618 0 0 0 73.95549-19.763183l149.771245-258.189992a53.526708 53.526708 0 0 0-19.911094-73.386602L231.196239-92.899587a54.442618 54.442618 0 0 0-73.95549 19.757494zM1092.641162 838.177275L40.015609 236.293365a27.232687 27.232687 0 0 1-7.583282-6.297594 27.915353 27.915353 0 0 1-2.844442-32.142194l150.266177-258.30377a28.495619 28.495619 0 0 1 38.741299-10.239991l1052.369554 601.883909a28.040508 28.040508 0 0 1 10.313946 38.439788l-149.958978 258.303771a28.444419 28.444419 0 0 1-38.68441 10.239991z m-386.434501-886.049346l-17.538829 12.515544 20.633582 6.257772 6.599105 20.428782 12.3335-17.63554 21.617759 0.1024-13.0503-17.095096 6.826661-20.320693-20.428782 7.014394-17.43074-12.697589z m-168.390961 9.369591l-19.808694 8.493504 18.881406 10.444791 2.013865 21.344692 15.837852-14.586298 21.10007 4.659196-9.102214-19.455983 10.985235-18.426295-21.45847 2.559998-14.290476-16.071097z m322.986379 38.081389l-20.89527 5.324795 16.96994 13.255099-1.342576 21.395893 17.948428-11.975101 20.070383 7.964437-5.882306-20.627892 13.772787-16.537586-21.617758-0.819199-11.605323-18.067895z m-330.67775 53.56653l30.025929 17.197496a331.59935 331.59935 0 0 1 260.158346 29.536685 327.048243 327.048243 0 0 1 156.199684 208.543103l30.025928 17.146296a353.239864 353.239864 0 0 0-173.351668-247.847602 358.35417 358.35417 0 0 0-303.041153-24.5646z m468.923316 58.493104l-21.35607-3.481597 10.239991 18.887094-9.910035 19.091894 21.25367-3.788797 15.223453 15.257587 2.941153-21.242292 19.291005-9.625592-19.444605-9.369591-3.248353-21.191093z m-518.860338 111.894656l-44.373294 76.85682 14.188076 8.191993 11.696345-20.246738 77.294865 44.629294-20.303627 35.180058-97.55298-56.31995-7.765326 13.448521 111.888967 64.591587 35.839968-62.0771-91.636541-52.90662 23.472335-40.641386a8.595903 8.595903 0 0 1 13.289233-3.561241l73.75069 42.581295a12.6919 12.6919 0 0 1 5.688884 6.826661c1.080888 3.583997-2.559998 13.306299-10.632524 29.337574l16.31003 3.504352c8.982748-19.643716 12.868255-32.182016 11.724789-37.375967a25.3838 25.3838 0 0 0-11.26399-13.596432l-81.584283-47.103958a25.213133 25.213133 0 0 0-12.470033-3.879819q-10.325324 0.005689-17.544518 12.561056z m579.213707 40.487786l-16.201941 14.182387 21.20247 4.147197 8.567459 19.655093 10.518746-18.733494 21.515359-1.996798-14.705765-15.718386 4.693329-20.935093-19.603894 9.011192-18.568516-10.90559z m-434.152859 22.960335c0.483555 16.241763 2.781864 27.619531 6.98595 33.985392l-24.149312 41.830363-19.803005-11.434657-7.509326 13.004789 32.961392 19.029316 32.255972-55.870528a18.739183 18.739183 0 0 0 3.498663-0.938666 41.705207 41.705207 0 0 1 15.758209-2.724975 59.875502 59.875502 0 0 1 21.788425 7.657238c8.533326 4.716085 18.50025 10.279813 30.031617 16.935807 7.241949 4.18133 14.546476 8.595903 21.851003 13.016166s12.8967 8.032704 16.713941 10.632524l4.625062-15.854919-33.700947-19.455983c-8.129415-4.68764-17.066651-9.671103-26.623977-14.978831a128.341219 128.341219 0 0 0-25.105044-11.138835 38.68441 38.68441 0 0 0-21.486914 1.388088 9.142036 9.142036 0 0 1-7.753949 0.449422q-4.653507-2.685153-4.443018-29.166908z m-7.810837 120.035449l33.991081 19.626649a232.948415 232.948415 0 0 1-22.124069 0.432355l3.66933 12.760167-28.529753-16.46363-6.735638 11.67359 81.14055 46.847958 5.717328-9.904347a181.054417 181.054417 0 0 0-16.56603-34.793213c0.466488-0.125155 0.841955-0.1024 1.308444-0.227556l29.707351 17.151985 37.887966-65.621275c5.040351-8.726748 2.719286-15.974386-6.883549-21.521048l-11.377768-6.57066-9.671102 9.966924 10.808879 5.467017a5.119995 5.119995 0 0 1 2.212976 7.776705l-4.351996 7.537771-21.282115-12.287989 13.994654-24.240334-12.856877-7.423994-14.000343 24.240334-20.838382-12.031989 14.165321-24.536156-13.30061-7.679993z m32.67126-25.873044l5.973328-10.348079 20.838381 12.031989-5.973328 10.34808z m33.700948 19.455983l5.967639-10.34808 21.282114 12.287989-5.967639 10.34808z m-46.33027 2.417776l5.973328-10.342391 20.838381 12.031989-5.967639 10.342391z m33.700947 19.455982l5.973328-10.342391 21.282115 12.28799-5.973328 10.34239z m-37.4613 17.78914c7.662927-0.3072 14.950387-0.637155 21.873759-1.365332a144.588671 144.588671 0 0 1 11.235545 20.479982zM397.761069 827.630084a519.258561 519.258561 0 0 0 546.673292-19.56976l-25.224511-14.432699a493.897517 493.897517 0 0 1-508.438304 11.770301 485.910324 485.910324 0 0 1-244.832494-442.532585l-25.22451-14.353053a510.90159 510.90159 0 0 0 257.046527 479.117796z m375.500466-455.986795c0.449422 16.61723 2.815997 28.23393 6.934749 34.747703l-24.063978 41.676763-20.098827-11.599635-7.679993 13.300611 33.564415 19.342205 32.341304-56.018439a12.708966 12.708966 0 0 0 3.646575-0.847644 46.02307 46.02307 0 0 1 16.264519-2.235731 65.376653 65.376653 0 0 1 22.596246 8.317148c8.806392 4.89244 19.234116 10.717857 31.357128 17.709495 6.650305 3.839997 13.363188 7.913237 20.309315 11.946656a527.154731 527.154731 0 0 1 15.59892 10.188791l4.79004-16.15643-31.334372-18.09065c-8.425237-4.863996-17.675362-10.006747-27.665043-15.576164a134.826547 134.826547 0 0 0-25.986821-11.650834 40.271609 40.271609 0 0 0-22.232158 0.955732 9.671103 9.671103 0 0 1-8.04977 0.278755c-3.100442-1.791998-4.642129-11.747545-4.391819-29.929217zM560.810168 405.458015l4.317863 14.711453a216.609941 216.609941 0 0 0 38.758366-8.760881l-4.272352-15.473764a181.475394 181.475394 0 0 1-38.803877 9.523192z m269.152472 35.578279q10.484613 4.869685 19.575449 10.120525a6.178128 6.178128 0 0 1 2.645331 9.409413l-33.871614 58.675148-55.580395-32.085305-7.964437 13.750033 55.580395 32.085304-13.141322 22.755536 14.040165 8.112348 13.141322-22.755535 20.986292 12.117322L853.332575 539.465362l-20.986293-12.117322 35.839969-62.077101c5.802662-10.052258 3.532797-18.062206-6.519461-23.864867l-20.844071-12.03199z m-352.232931 248.77489a358.399681 358.399681 0 0 0 303.075286 24.547534l-30.025929-17.203185a331.354728 331.354728 0 0 1-260.146969-29.536685 326.70691 326.70691 0 0 1-156.205372-208.543103L304.355285 441.92376a353.239864 353.239864 0 0 0 173.368735 247.887424z m302.842042-215.802119l7.008704 13.084433A267.405985 267.405985 0 0 0 824.888156 471.005334l-6.712883-14.31892a269.340205 269.340205 0 0 1-37.603522 17.322651z m-551.952576 11.605323l-16.201942 14.222209 21.20247 4.090308 8.56746 19.711982 10.518746-18.739183 21.515358-2.047998-14.705764-15.712697 4.744529-20.935093L244.622005 475.283375l-18.568517-10.95679z m479.40224 4.829862l4.317863 14.711454A225.626822 225.626822 0 0 0 750.932666 496.696334l-4.312174-16.088164a185.093524 185.093524 0 0 1-38.599077 9.841769zM305.896973 617.175515l-21.35607-3.41333 10.239991 18.887094-9.910036 19.046383 21.259359-3.788796 15.217764 15.251897 2.918397-21.259358 19.291006-9.625592-19.444605-9.312703-3.248353-21.242292zM431.308417 739.213451l-20.946471 5.324796 17.021141 13.255099-1.342577 21.395892 17.897229-11.946656 20.121582 7.879104-5.933506-20.627893 13.772788-16.531896-21.56087-0.819199-11.605323-18.067895z m329.898373 46.682981l-19.859893 8.499193 18.881405 10.439101 2.082132 21.344693 15.837852-14.586299 21.10007 4.659196-9.159103-19.455982 10.985235-18.431984-21.45847 2.559998-14.290476-16.122297z m-184.888725 10.086391l-17.538828 12.515545 20.684781 6.195194 6.553594 20.423093 12.322123-17.63554 21.617758 0.1536-13.050299-17.100785 6.82666-20.371893-20.428781 7.014394-17.37954-12.697589z"  horiz-adv-x="1310" />
      
      <glyph glyph-name="icon_dsp1" unicode="&#59316;" d="M366.512356-40.0896l25.173333 14.381511a493.892267 493.892267 0 0 1 508.438755-11.616711 486.075733 486.075733 0 0 1 245.088712 442.379378l24.968533 14.381511a510.896356 510.896356 0 0 0-257.063822-479.061333 519.247644 519.247644 0 0 0-546.605511 19.535644z m-209.288534-33.046756L7.264711 185.059556a53.475556 53.475556 0 0 0 19.859911 73.386666L1079.751111 860.393244a54.442667 54.442667 0 0 0 73.955556-19.7632l149.771377-258.190222a53.526756 53.526756 0 0 0-19.911111-73.386666L231.196444-92.899556a54.442667 54.442667 0 0 0-73.955555 19.757512zM1092.642133 838.178133L40.015644 236.293689a27.232711 27.232711 0 0 1-7.583288-6.2976 27.915378 27.915378 0 0 1-2.844445-32.142222l150.266311-258.304a28.495644 28.495644 0 0 1 38.741334-10.24l1052.370488 601.884444a28.040533 28.040533 0 0 1 10.313956 38.439822l-149.959111 258.304a28.444444 28.444444 0 0 1-38.684445 10.24z m-386.434844-886.050133l-17.538845 12.515556 20.6336 6.257777 6.599112 20.4288 12.333511-17.635555 21.617777 0.1024-13.050311-17.095111 6.826667-20.320711-20.4288 7.0144-17.430756-12.6976z m-168.391111 9.3696l-19.808711 8.493511 18.881422 10.4448 2.013867 21.344711 15.837866-14.586311 21.100089 4.6592-9.102222-19.456 10.985244-18.426311-21.458489 2.56-14.290488-16.071111z m322.986666 38.081422l-20.895288 5.3248 16.969955 13.255111-1.342578 21.395911 17.948445-11.975111 20.0704 7.964445-5.882311-20.627911 13.7728-16.5376-21.617778-0.8192-11.605333-18.067911z m-330.678044 53.566578l30.025956 17.197511a331.599644 331.599644 0 0 1 260.158577 29.536711 327.048533 327.048533 0 0 1 156.199823 208.543289l30.025955 17.146311a353.240178 353.240178 0 0 0-173.351822-247.847822 358.354489 358.354489 0 0 0-303.041422-24.564622z m468.923733 58.493156l-21.356089-3.4816 10.24 18.887111-9.910044 19.091911 21.253689-3.7888 15.223467 15.2576 2.941155-21.242311 19.291022-9.6256-19.444622-9.3696-3.248355-21.191111z m-532.758755 152.354133a223.7952 223.7952 0 0 0-7.765334-22.431289l-11.667911 10.996622a136.260267 136.260267 0 0 1 8.948623 62.316089l15.217777 1.297067a132.306489 132.306489 0 0 0-0.170666-29.064534l43.349333-75.093333-13.448533-7.765333z m83.8656-12.475733a258.7648 258.7648 0 0 1 19.729066 10.205866 7.315911 7.315911 0 0 1 2.7648 11.252622l-18.204444 31.482312-56.1664-32.426667-7.594667 13.152711 56.160711 32.426667-5.632 9.750755 13.897956 8.021334 5.632-9.756445 16.105244 9.295645 7.600356-13.152712-16.110933-9.295644 20.144355-34.884267c6.314667-10.934044 4.1472-19.478756-6.343111-25.537422l-20.986311-12.111644z m509.252266 12.515555l-16.201955 14.1824 21.202489 4.1472 8.567466 19.655111 10.518756-18.733511 21.515378-1.9968-14.705778-15.7184 4.693333-20.935111-19.603911 9.0112-18.568533-10.9056z m-546.702222 2.139022l6.923378 13.266489a233.745067 233.745067 0 0 0 31.146667-10.5984l-6.496711-14.000355a228.323556 228.323556 0 0 1-31.5392 11.320889z m-90.743466 26.441956a115.484444 115.484444 0 0 1 8.800711 53.367467l15.36 1.376711a132.010667 132.010667 0 0 0-12.407467-65.888711z m52.241066 20.110222l37.097245 21.418667-8.789334 15.229155-31.778133-18.352355-7.395556 12.862578 31.778134 18.346666-8.618667 14.927645 13.442845 7.759644 8.624355-14.921955 32.073956 18.511644 7.395555-12.856889-32.073955-18.517333 8.783644-15.223467 38.115556 22.016 7.509333-13.0048-88.684089-51.2z m118.1696 69.404445l43.451734 25.088-7.395556 12.862577 13.897956 8.021334 7.395555-12.862578 43.901156 25.344 42.319644-73.307022-13.744355-7.964445-4.352 7.537778-30.151112-17.408 16.896-29.263644-13.897955-8.015645-16.896 29.257956-29.707378-17.152 4.608-7.964445-13.750044-7.936z m36.363378-31.226312l7.964444-13.744355 29.707378 17.152-7.964444 13.750044z m43.599644 25.167645l7.936-13.744356 30.151112 17.408-7.936 13.744356z m-58.703644 0.989867l8.015644-13.892267 29.713067 17.152-8.021333 13.892267z m43.599644 25.173333l8.055467-13.897956 30.151111 17.408-8.015644 13.897956z m-259.470222 425.398044a519.259022 519.259022 0 0 0 546.673778-19.569777l-25.224533-14.432712a493.897956 493.897956 0 0 1-508.438756 11.770312 485.910756 485.910756 0 0 1-244.832711-442.532978l-25.224533-14.353067a510.902044 510.902044 0 0 0 257.046755 479.118222z m372.656356-449.353955a78.273422 78.273422 0 0 1 11.298133 5.341866 5.381689 5.381689 0 0 1 2.104889 8.311467l-17.92 31.038578a336.327111 336.327111 0 0 0-11.741867-12.100267l-11.019377 11.599645a277.646222 277.646222 0 0 1 14.904888 14.119822l-19.114666 33.103644-15.519289-8.96-7.765333 13.448534 15.519288 8.96-15.104 26.168889 13.596445 7.850666 15.104-26.168889 13.448533 7.765334 7.765334-13.448534-13.448534-7.765333 16.64-28.819911c3.413333 3.953778 6.690133 8.203378 9.807645 12.367644l7.68-13.300622c-3.259733-4.2496-6.610489-8.351289-9.807645-12.367644l22.607645-39.168c5.632-9.756444 3.720533-17.362489-5.444267-22.653156l-12.714667-7.344355z m-209.652622 27.938133l55.273244 31.914667a119.751111 119.751111 0 0 1-9.346844 6.633244l13.562311 10.979556a224.853333 224.853333 0 0 0 10.24-9.244445l56.1664 32.426667 16.128-27.932444-13.596445-7.850667-8.704 15.075555-98.730666-57.002666 9.102222-15.815111-13.596445-7.850667z m251.716266-3.857067a9.358222 9.358222 0 0 1 1.28 11.776L748.657778 526.910578l13.897955 8.021333 24.234667-41.978311 18.921244 10.928356 7.856356-13.596445-18.938311-10.928355 35.072-60.751645a131.242667 131.242667 0 0 1 13.624889 16.338489l9.9328-11.406222a289.143467 289.143467 0 0 0-29.724445-32.136534z m42.951111 28.347734l-68.608 118.829511 13.897956 8.021333 24.234667-41.978311a129.308444 129.308444 0 0 1 16.713955 24.632889l14.705778-6.684444a237.124267 237.124267 0 0 0-23.3984-31.857778l34.577067-59.858489a5.216711 5.216711 0 0 1 7.964444-2.503111l6.064356 3.504355a7.054222 7.054222 0 0 1 3.800177 6.724267c0.113778 3.219911-3.350756 11.269689-10.24 24.240356l15.098311 3.197155c8.630044-17.681067 12.452978-29.070222 11.377778-34.030933a18.562844 18.562844 0 0 0-9.915733-11.832889l-13.0048-7.509333a18.932622 18.932622 0 0 0-9.3696-2.895645 16.429511 16.429511 0 0 0-13.903645 10.006756zM477.724444 689.811911a358.4 358.4 0 0 0 303.075556 24.547556l-30.025956-17.2032a331.355022 331.355022 0 0 1-260.1472-29.536711 326.7072 326.7072 0 0 1-156.205511-208.543289L304.355556 441.924267a353.240178 353.240178 0 0 0 173.368888 247.887644zM228.619378 485.614933l-16.201956 14.222223 21.202489 4.090311 8.567467 19.712 10.518755-18.7392 21.515378-2.048-14.705778-15.712711 4.744534-20.935112L244.622222 475.283911l-18.568533-10.9568z m77.277866 131.555556l-21.356088-3.413333 10.24 18.887111-9.910045 19.0464 21.259378-3.7888 15.217778 15.251911 2.9184-21.253689 19.291022-9.6256-19.444622-9.312711-3.248356-21.242311z m125.411556 122.038044l-20.946489 5.3248 17.021156 13.255111-1.342578 21.395912 17.897244-11.946667 20.1216 7.879111-5.933511-20.627911 13.7728-16.531911-21.560889-0.8192-11.605333-18.067911z m329.898667 46.683023l-19.859911 8.4992 18.881422 10.439111 2.082133 21.3504 15.837867-14.586311 21.100089 4.6592-9.159111-19.456 10.985244-18.432-21.458489 2.56-14.290489-16.122312z m-184.888889 10.0864l-17.538845 12.515555 20.6848 6.1952 6.5536 20.423111 12.322134-17.635555 21.617777 0.1536-13.050311-17.1008 6.826667-20.371911-20.4288 7.0144-17.379556-12.6976z"  horiz-adv-x="1310" />
      
      <glyph glyph-name="icon_lsfx" unicode="&#59301;" d="M525.116235 52.720941a38.671059 38.671059 0 0 0-7.228235 0.677647l-229.466353 43.91153a77.131294 77.131294 0 0 0-62.479059 75.730823V582.309647a76.8 76.8 0 0 0 58.548706 74.782118l231.454118 57.088a38.535529 38.535529 0 0 0 47.781647-37.345883V91.256471a38.580706 38.580706 0 0 0-38.565647-38.53553z m-60.687059 376.470588a45.176471 45.176471 0 1 1 45.176471-45.17647 45.176471 45.176471 0 0 1-45.191529 45.17647z m248.636236-347.045647h-78.305883V636.988235h78.305883a77.146353 77.146353 0 0 0 77.040941-77.025882V159.171765a77.146353 77.146353 0 0 0-77.040941-77.025883z"  horiz-adv-x="1024" />
      
      <glyph glyph-name="icon_qjsp" unicode="&#59302;" d="M542.900706 90.066824a192.331294 192.331294 0 0 0-56.696471 136.869647 192.361412 192.361412 0 0 0 56.696471 136.914823 192.391529 192.391529 0 0 0 136.914823 56.741647 192.436706 192.436706 0 0 0 136.914824-56.741647 192.361412 192.361412 0 0 0 56.696471-136.914823 192.331294 192.331294 0 0 0-56.696471-136.869647 192.316235 192.316235 0 0 0-136.914824-56.741648 192.195765 192.195765 0 0 0-136.914823 56.741648z m66.258823 166.625882a25.991529 25.991529 0 0 1-7.725176-18.627765 26.051765 26.051765 0 0 1 7.725176-18.612706l47.887059-47.932235 0.39153-0.346353a1.505882 1.505882 0 0 1 0.271058-0.271059l0.120471-0.12047a26.021647 26.021647 0 0 1 18.627765-7.725177 25.961412 25.961412 0 0 1 18.627764 7.725177l90.533648 90.48847a26.232471 26.232471 0 0 1 7.725176 18.627765 26.232471 26.232471 0 0 1-7.725176 18.627765 26.172235 26.172235 0 0 1-18.672942 7.725176 26.142118 26.142118 0 0 1-18.627764-7.725176l-71.875765-71.860706-30.042353 30.027294a26.081882 26.081882 0 0 1-18.627765 7.725176 26.006588 26.006588 0 0 1-18.672941-7.710117z m-432.700235-171.670588a25.765647 25.765647 0 0 0-19.290353 8.658823 25.840941 25.840941 0 0 0-6.369882 20.178824l15.721412 133.692235a77.101176 77.101176 0 0 0 63.09647 67.132235l209.091765 38.02353a105.411765 105.411765 0 0 0 18.507294 1.65647 105.411765 105.411765 0 0 0 12.528941-0.768l-1.671529-2.831059a243.832471 243.832471 0 0 1-33.490824-123.798588 243.440941 243.440941 0 0 1 45.176471-141.959529z m141.989647 451.764706v51.651764q0 141.974588 141.95953 141.95953t141.989647-141.95953v-51.651764q0-141.974588-141.989647-142.004706t-142.004706 141.959529z"  horiz-adv-x="1024" />
      
      <glyph glyph-name="icon_zdsp" unicode="&#59303;" d="M688.143059 13.914353a193.656471 193.656471 0 1 0 136.914823 56.711529 192.286118 192.286118 0 0 0-136.914823-56.711529z m-1.822118 313.464471a25.856 25.856 0 0 1-25.886117-25.840942v-95.849411a25.856 25.856 0 0 1 25.825882-25.840942h95.894588a25.825882 25.825882 0 0 1 0 51.636706h-70.038588v70.053647a25.856 25.856 0 0 1-25.810824 25.856zM481.340235 114.326588H276.434824a53.985882 53.985882 0 0 0-53.865412 53.880471V502.618353l-46.456471-46.486588a24.169412 24.169412 0 0 0-34.319059 33.972706l286.735059 254.569411a53.895529 53.895529 0 0 0 76.227765 0l286.569412-254.418823a25.283765 25.283765 0 0 0 0-34.063059 24.184471 24.184471 0 0 0-34.123294 0l-46.47153 46.531765v-21.519059l1.129412-43.806118a224.271059 224.271059 0 0 1-199.905882-71.936 218.352941 218.352941 0 0 1-56.079059-118.467764 198.309647 198.309647 0 0 1 25.46447-132.653177z"  horiz-adv-x="1024" />
      
      <glyph glyph-name="icon_fxsq" unicode="&#59304;" d="M460.8 177.362824a914.221176 914.221176 0 0 1-139.821176 10.10447 944.308706 944.308706 0 0 1-118.046118-7.03247A46.501647 46.501647 0 0 0 150.588235 226.680471V645.360941a46.772706 46.772706 0 0 0 39.890824 46.140235 926.855529 926.855529 0 0 0 130.409412 8.719059 886.964706 886.964706 0 0 0 157.590588-13.131294 15.495529 15.495529 0 0 0 12.724706-15.284706v-278.588235A236.950588 236.950588 0 0 1 460.8 177.377882z m402.070588 235.339294a237.763765 237.763765 0 0 1-340.615529 15.917176v243.2a15.510588 15.510588 0 0 0 12.634353 15.269647 886.136471 886.136471 0 0 0 157.605647 13.131294 927.412706 927.412706 0 0 0 130.42447-8.704 46.772706 46.772706 0 0 0 39.951059-46.155294v-232.658823zM682.631529 67.749647a190.373647 190.373647 0 1 0 134.896942 325.029647 190.373647 190.373647 0 0 0-134.896942-324.98447z m-1.807058 308.208941a25.464471 25.464471 0 0 1-25.434353-25.434353v-94.162823a25.434353 25.434353 0 0 1 25.389176-25.434353h94.584471a25.389176 25.389176 0 0 1 0 50.763294H706.258824v68.833882a25.464471 25.464471 0 0 1-25.434353 25.434353z"  horiz-adv-x="1024" />
      
      <glyph glyph-name="icon_qjsq" unicode="&#59305;" d="M542.900706 90.066824a192.331294 192.331294 0 0 0-56.696471 136.869647 192.361412 192.361412 0 0 0 56.696471 136.914823 192.391529 192.391529 0 0 0 136.914823 56.741647 192.436706 192.436706 0 0 0 136.914824-56.741647 192.361412 192.361412 0 0 0 56.696471-136.914823 192.331294 192.331294 0 0 0-56.696471-136.869647 192.316235 192.316235 0 0 0-136.914824-56.741648 192.195765 192.195765 0 0 0-136.914823 56.741648z m109.236706 230.942117v-95.894588a25.825882 25.825882 0 0 1 25.810823-25.810824h95.894589a25.825882 25.825882 0 0 1 25.810823 25.810824 25.825882 25.825882 0 0 1-25.810823 25.810823h-70.053648v70.083765a25.840941 25.840941 0 0 1-25.840941 25.795765 25.810824 25.810824 0 0 1-25.810823-25.795765zM176.399059 84.976941a25.765647 25.765647 0 0 0-19.290353 8.658824 25.840941 25.840941 0 0 0-6.369882 20.178823l15.721411 133.692236a77.101176 77.101176 0 0 0 63.096471 67.132235l209.091765 38.023529a105.411765 105.411765 0 0 0 18.507294 1.656471 105.411765 105.411765 0 0 0 12.528941-0.768l-1.67153-2.831059a243.832471 243.832471 0 0 1-33.490823-123.798588 243.440941 243.440941 0 0 1 45.176471-141.95953z m141.989647 451.764706v51.651765q0 141.974588 141.959529 141.959529t141.989647-141.959529v-51.651765q0-141.974588-141.989647-142.004706t-141.94447 142.004706z"  horiz-adv-x="1024" />
      
      <glyph glyph-name="icon_zdsq" unicode="&#59306;" d="M688.143059 13.914353a193.656471 193.656471 0 1 0 136.914823 56.711529 192.286118 192.286118 0 0 0-136.914823-56.711529zM618.556235 237.327059a26.337882 26.337882 0 0 1-18.642823-44.980706l47.917176-47.902118 0.256-0.271059 0.120471-0.135529a1.505882 1.505882 0 0 0 0.225882-0.210823l0.105412-0.120471a26.352941 26.352941 0 0 1 37.255529 0l90.50353 90.518588a26.337882 26.337882 0 1 1-37.195294 37.195294l-71.875765-71.890823-30.012235 30.117647a26.202353 26.202353 0 0 1-18.657883 7.68z m-137.216-123.000471H276.434824a53.985882 53.985882 0 0 0-53.865412 53.880471V502.618353l-46.456471-46.486588a24.169412 24.169412 0 0 0-34.319059 33.972706l286.735059 254.569411a53.895529 53.895529 0 0 0 76.227765 0l286.569412-254.418823a25.283765 25.283765 0 0 0 0-34.063059 24.184471 24.184471 0 0 0-34.123294 0l-46.47153 46.531765v-21.519059l1.129412-43.806118a224.271059 224.271059 0 0 1-199.905882-71.936 218.352941 218.352941 0 0 1-56.079059-118.467764 198.309647 198.309647 0 0 1 25.46447-132.653177z"  horiz-adv-x="1024" />
      
      <glyph glyph-name="icon_fxsp" unicode="&#59307;" d="M460.8 177.362824a914.221176 914.221176 0 0 1-139.821176 10.10447 944.308706 944.308706 0 0 1-118.046118-7.03247A46.501647 46.501647 0 0 0 150.588235 226.680471V645.360941a46.772706 46.772706 0 0 0 39.890824 46.140235 926.855529 926.855529 0 0 0 130.409412 8.719059 886.964706 886.964706 0 0 0 157.590588-13.131294 15.495529 15.495529 0 0 0 12.724706-15.284706v-278.588235A236.950588 236.950588 0 0 1 460.8 177.377882z m402.070588 235.339294a237.763765 237.763765 0 0 1-340.615529 15.917176v243.2a15.510588 15.510588 0 0 0 12.634353 15.269647 886.136471 886.136471 0 0 0 157.605647 13.131294 927.412706 927.412706 0 0 0 130.42447-8.704 46.772706 46.772706 0 0 0 39.951059-46.155294v-232.658823zM682.631529 67.749647a190.373647 190.373647 0 1 0 134.896942 325.029647 190.373647 190.373647 0 0 0-134.896942-324.98447z m-69.601882 220.16a26.352941 26.352941 0 0 1-18.627765-44.995765l47.917177-47.917176 0.37647-0.376471 0.376471-0.37647a26.337882 26.337882 0 0 1 37.270588 0l90.50353 90.503529a26.352941 26.352941 0 0 1-37.270589 37.25553l-71.860705-71.860706-30.042353 30.042353a26.187294 26.187294 0 0 1-18.642824 7.725176z"  horiz-adv-x="1024" />
      
      <glyph glyph-name="icon_zonglan" unicode="&#59299;" d="M93.098667 105.770667a93.141333 93.141333 0 0 0-21.077334 183.850666 93.269333 93.269333 0 0 0 111.829334-111.872 92.032 92.032 0 0 0-69.674667-69.674666 97.322667 97.322667 0 0 0-21.077333-2.304z m0 150.144a61.141333 61.141333 0 0 1-13.269334-1.493334 57.088 57.088 0 0 1 13.269334-112.64 61.269333 61.269333 0 0 1 13.269333 1.493334 57.088 57.088 0 0 1-13.269333 112.64zM351.36 363.477333a92.714667 92.714667 0 0 0-72.533333 34.858667 93.653333 93.653333 0 0 0-18.133334 79.317333 92.032 92.032 0 0 0 69.674667 69.674667 93.269333 93.269333 0 0 0 111.829333-111.872 92.032 92.032 0 0 0-69.674666-69.674667 97.536 97.536 0 0 0-21.162667-2.304z m0 150.144a61.226667 61.226667 0 0 1-13.269333-1.493333 57.088 57.088 0 0 1 13.269333-112.64 61.226667 61.226667 0 0 1 13.269333 1.493333 57.088 57.088 0 0 1-13.269333 112.64zM930.730667 453.845333a92.714667 92.714667 0 0 0-72.533334 34.858667 93.610667 93.610667 0 0 0-18.133333 79.317333 92.032 92.032 0 0 0 69.674667 69.674667 93.269333 93.269333 0 0 0 111.829333-111.872 92.032 92.032 0 0 0-69.674667-69.674667 97.365333 97.365333 0 0 0-21.162666-2.304z m0 150.144a61.141333 61.141333 0 0 1-13.269334-1.493333 57.088 57.088 0 0 1 13.269334-112.64 61.141333 61.141333 0 0 1 13.269333 1.493333 57.088 57.088 0 0 1-13.269333 112.64zM665.173333 111.616a93.397333 93.397333 0 0 0-80.768 46.933333 96.682667 96.682667 0 0 0 2.56 98.986667 70.912 70.912 0 0 0 25.6 25.6 103.637333 103.637333 0 0 0 52.693334 14.890667 93.397333 93.397333 0 0 0 80.768-46.933334 96.64 96.64 0 0 0-2.602667-99.029333 70.997333 70.997333 0 0 0-25.6-25.6 103.594667 103.594667 0 0 0-52.650667-14.848z m0 150.144a68.266667 68.266667 0 0 1-34.517333-9.984 35.285333 35.285333 0 0 1-12.544-12.544 61.568 61.568 0 0 1-2.432-62.890667 57.258667 57.258667 0 0 1 49.536-28.714666 68.266667 68.266667 0 0 1 34.56 9.984 34.858667 34.858667 0 0 1 12.501333 12.501333 61.568 61.568 0 0 1 2.474667 62.890667 57.258667 57.258667 0 0 1-49.578667 28.757333zM740.266667 303.573333l-27.093334 23.722667 126.122667 144.128 27.093333-23.722667zM552.832 247.68l-126.122667 108.117333 23.466667 27.349334 126.122667-108.117334zM179.712 265.514667l-23.082667 27.690666 108.117334 90.112 23.082666-27.690666zM91.392 284.629333a85.333333 85.333333 0 1 0-85.333333-85.333333 85.333333 85.333333 0 0 0 85.333333 85.333333zM351.36 534.144a85.333333 85.333333 0 1 0-85.333333-85.333333 85.333333 85.333333 0 0 0 85.333333 85.333333zM673.024 290.048a85.333333 85.333333 0 1 0-85.333333-85.333333 85.333333 85.333333 0 0 0 85.333333 85.333333zM930.944 634.922667a85.333333 85.333333 0 1 0-85.333333-85.333334 85.333333 85.333333 0 0 0 85.333333 85.333334z"  horiz-adv-x="1024" />
      
      <glyph glyph-name="icon_download" unicode="&#59300;" d="M170.7008 85.3504h682.6496V384h85.3504v-341.3504a42.6496 42.6496 0 0 0-42.6496-42.6496h-768a42.6496 42.6496 0 0 0-42.7008 42.6496V384h85.3504zM597.3504 512h213.3504l-298.6496-298.6496L213.3504 512h213.3504v256h170.6496z"  horiz-adv-x="1024" />
      
      <glyph glyph-name="icon_jiang" unicode="&#59297;" d="M810.656 0l170.688 213.344h-128v512H768v-512h-128zM597.312 640V725.344H128V640z m0-298.656v85.344H128v-85.344zM512 42.688V128H128v-85.344z"  horiz-adv-x="1024" />
      
      <glyph glyph-name="icon_sheng" unicode="&#59298;" d="M810.656 768l170.656-213.344h-128v-512H768v512h-128z m-213.312-640v-85.344H128V128z m0 298.656v-85.344H128v85.344zM512 725.344V640H128V725.344z"  horiz-adv-x="1024" />
      
      <glyph glyph-name="ic_setting" unicode="&#59292;" d="M85.333333 384a428.202667 428.202667 0 0 0 13.482667 106.666667A128 128 0 0 1 212.906667 688.341333a426.24 426.24 0 0 0 184.96 106.88 128 128 0 0 1 228.181333 0 426.24 426.24 0 0 0 184.96-106.666666A128 128 0 0 1 925.141333 490.666667a429.866667 429.866667 0 0 0 0-213.632 128 128 0 0 1-114.133333-197.504 426.24 426.24 0 0 0-184.96-106.666667 128 128 0 0 1-228.181333 0 426.24 426.24 0 0 0-184.96 106.666667A128 128 0 0 1 98.773333 277.333333 429.056 429.056 0 0 0 85.333333 384z m204.8-128a213.333333 213.333333 0 0 0 24.064-150.357333 341.632 341.632 0 0 1 55.466667-32 213.333333 213.333333 0 0 0 284.586667 0 341.632 341.632 0 0 1 55.466666 32 213.333333 213.333333 0 0 0 142.250667 246.357333 346.709333 346.709333 0 0 1 0 64 213.333333 213.333333 0 0 0-142.293333 246.357333 340.864 340.864 0 0 1-55.466667 32 213.333333 213.333333 0 0 0-284.544 0 340.906667 340.906667 0 0 1-55.466667-32 213.333333 213.333333 0 0 0-142.08-246.357333 346.709333 346.709333 0 0 1 0-64A213.034667 213.034667 0 0 0 290.346667 256z m221.866667 0a128 128 0 1 0 128 128 128 128 0 0 0-128-128z m0 85.333333a42.666667 42.666667 0 1 1-42.666667 42.666667 42.666667 42.666667 0 0 1 42.666667-42.666667z"  horiz-adv-x="1024" />
      
      <glyph glyph-name="ic_gns" unicode="&#59288;" d="M682.7008-85.2992V51.2H341.3504v-136.4992H255.8976V51.2h-128a42.5984 42.5984 0 0 0-42.3936 42.3936V725.6576a42.496 42.496 0 0 0 42.3936 42.3936h768.5632a42.9056 42.9056 0 0 0 42.4448-42.3936v-632.064a42.4448 42.4448 0 0 0-42.4448-42.3936h-128.3072v-136.4992zM597.3504 256h170.5984v85.2992h-170.5984zM255.8976 384a128 128 0 0 1 128-128 128 128 0 0 1 128 128 128 128 0 0 1-128 128A128 128 0 0 1 255.9488 384z m341.4528 42.5984h170.5984V512h-170.5984z"  horiz-adv-x="1024" />
      
      <glyph glyph-name="icon_mnkg" unicode="&#59261;" d="M256 677.717333v-556.373333l107.008 13.482667V654.5493329999999C325.290667 662.912 286.890667 671.232 256 677.717333M197.802667 774.954667c1.408 0 2.901333-0.085333 4.48-0.213334 27.050667-2.56 214.442667-44.714667 214.442666-44.714666 20.693333-6.4 31.573333-17.621333 31.573334-39.253334v-595.882666c0-21.717333-12.202667-35.114667-31.573334-39.253334l-214.442666-27.050666c-22.826667-1.066667-31.274667 12.8-31.616 39.253333V735.445333c0 20.437333 4.053333 39.509333 27.136 39.509334zM448.085333 756.394667v-709.333334l346.453334 76.373334V679.765333c-116.053333 25.813333-265.258667 58.88-346.453334 76.629334M400.128 853.333333c1.877333 0 3.754667-0.170667 5.717333-0.554666 24.704-4.608 430.933333-94.976 430.933334-94.976 28.16-7.722667 43.093333-21.290667 43.093333-47.530667v-617.386667c0-26.282667-16.682667-42.496-43.093333-47.530666l-430.933334-94.976c-28.885333-4.096-43.861333 20.693333-43.093333 47.488V805.290667c0 24.149333 15.616 48.042667 37.376 48.042666zM702.592 465.749333a42.666667 42.666667 0 0 0 42.666667-42.666666v-42.666667a42.666667 42.666667 0 1 0-85.333334 0v42.666667a42.666667 42.666667 0 0 0 42.666667 42.666666z"  horiz-adv-x="1024" />
      
      <glyph glyph-name="icon_jwgl" unicode="&#59295;" d="M410.5216 273.8432v-192s270.1056-53.76 337.6128 73.3184v164.992a38.7328 38.7328 0 0 1-54.784 35.2512l-96.0768-43.52a193.0496 193.0496 0 0 0-145.7664-8.6784 31.0272 31.0272 0 0 1-40.96-29.3632zM512 334.1056a163.2 163.2 0 0 0-66.56 14.1312L165.8368 472.96a54.4512 54.4512 0 0 0 0 99.4304l279.6544 124.7232a163.4816 163.4816 0 0 0 132.9664 0l279.68-124.7232a54.4512 54.4512 0 0 0 0-99.4304l-279.6544-124.6976a163.2 163.2 0 0 0-66.56-14.1312z m-46.2848 59.4944a113.7152 113.7152 0 0 1 92.544 0l279.68 124.672a4.8128 4.8128 0 0 1 0 8.7808L558.3616 651.7504a113.7152 113.7152 0 0 1-92.544 0L186.1632 527.0527999999999a4.8128 4.8128 0 0 1 0-8.7808zM511.8464 328.4992a167.7056 167.7056 0 0 0-68.7104 14.6176L163.6864 467.84a60.032 60.032 0 0 0 0 109.6448L443.3408 702.208a168.96 168.96 0 0 0 137.5232 0l279.68-124.7232a60.032 60.032 0 0 0 0-109.6448l-279.6544-124.6976a167.7312 167.7312 0 0 0-68.7104-14.6176z m0 377.1136a156.928 156.928 0 0 1-64.2304-13.6448L168.1408 567.2704a48.8704 48.8704 0 0 1 0-89.2416l279.7056-124.7232a156.6208 156.6208 0 0 1 64.1536-13.6448v-5.5808 5.5808a156.6976 156.6976 0 0 1 64.2048 13.6448l279.6544 124.6976a48.8704 48.8704 0 0 1 0 89.2416L576.2304 691.9936A156.928 156.928 0 0 1 512 705.6384z m0-327.5008a118.5536 118.5536 0 0 0-48.64 10.24L183.5264 513.0496a10.368 10.368 0 0 0 0 18.9696l279.936 124.8a119.296 119.296 0 0 0 97.0752 0l279.68-124.7488a10.3936 10.3936 0 0 0 0-18.944l-279.7312-124.672a118.5536 118.5536 0 0 0-48.4864-10.3168zM189.7728 522.624l278.0672-124.0064a108.1344 108.1344 0 0 1 87.9872 0l278.0928 123.9552-277.9136 124.0576a108.1344 108.1344 0 0 1-87.9872 0zM751.3856 271.36a24.832 24.832 0 0 0-24.8064 24.8064v129.8688l-214.2464 69.5296a24.832 24.832 0 1 0 15.36 47.2064l231.424-75.0848a24.8064 24.8064 0 0 0 17.152-23.6032v-147.9168a24.832 24.832 0 0 0-24.8832-24.8064z m-239.6416-211.84a518.9888 518.9888 0 0 0-177.536 28.16 188.1856 188.1856 0 0 0-58.88 33.4336 71.4496 71.4496 0 0 0-26.9824 53.76v185.728a24.832 24.832 0 1 0 49.6384 0v-185.984c0-7.5264 11.3408-24.5504 53.76-40.6528a527.9488 527.9488 0 0 1 320 0c42.5216 16.1024 52.4544 35.3536 53.76 40.6528l0.9728 11.6224a23.9872 23.9872 0 0 0 24.8064 23.808 23.04 23.04 0 0 0 23.8336-23.808v-11.6224a76.0064 76.0064 0 0 0-27.0336-53.76 187.8528 187.8528 0 0 0-58.88-33.4336 518.8352 518.8352 0 0 0-177.4336-27.9296zM511.744 53.913599999999974a524.8 524.8 0 0 0-179.5072 28.416 193.792 193.792 0 0 0-60.6976 34.4832 76.8 76.8 0 0 0-28.8512 57.8048v185.984a30.4128 30.4128 0 1 0 60.8 0v-185.984c0-4.2496 9.2416-19.8912 50.2528-35.4304a522.5472 522.5472 0 0 1 315.9808 0c41.344 15.6416 49.3312 33.7664 50.3296 36.5056l0.9216 10.7776a29.5936 29.5936 0 0 0 30.3872 29.1584 28.7744 28.7744 0 0 0 29.4144-29.3888v-12.4416l-0.1536-1.0496a80.6144 80.6144 0 0 0-28.672-55.936 193.3312 193.3312 0 0 0-60.6976-34.4832 524.416 524.416 0 0 0-179.5072-28.416z m-238.6432 325.9392a19.2768 19.2768 0 0 1-19.2512-19.2512v-185.984a66.048 66.048 0 0 1 25.1392-49.4848 182.8864 182.8864 0 0 1 57.1904-32.3584 570.1888 570.1888 0 0 1 351.0784 0 182.4512 182.4512 0 0 1 57.1904 32.3584 69.4784 69.4784 0 0 1 25.0624 49.28v11.8272a17.6384 17.6384 0 0 1-18.2528 18.2528 18.3552 18.3552 0 0 1-19.2512-18.2528v-0.4608l-1.024-12.1088-0.128-0.4864c-1.1264-4.224-9.216-26.24-57.2928-44.416a533.376 533.376 0 0 0-323.8912 0c-42.368 16.0256-57.472 34.2016-57.472 45.8752v185.984a19.2768 19.2768 0 0 1-19.0976 19.2256z m478.2848-114.0992a30.4384 30.4384 0 0 0-30.3872 30.3872v125.8496l-210.3808 68.2752a30.3872 30.3872 0 1 0 18.7648 57.8304l231.424-75.0848a30.3104 30.3104 0 0 0 21.0176-28.9024v-147.9168a30.4384 30.4384 0 0 0-30.4384-30.4128z m-231.424 272.64a19.2512 19.2512 0 0 1-5.9392-37.5552l218.112-70.7584v-133.9392a19.2512 19.2512 0 0 1 38.4 0v147.9168a19.2 19.2 0 0 1-13.312 18.304l-231.424 75.0848a19.2512 19.2512 0 0 1-5.8112 0.9728z"  horiz-adv-x="1024" />
      
      <glyph glyph-name="icon_lock" unicode="&#59293;" d="M810.666667 469.333333h42.666666a42.666667 42.666667 0 0 0 42.666667-42.666666v-426.666667a42.666667 42.666667 0 0 0-42.666667-42.666667H170.666667a42.666667 42.666667 0 0 0-42.666667 42.666667V426.666667a42.666667 42.666667 0 0 0 42.666667 42.666666h42.666666V512a298.666667 298.666667 0 0 0 597.333334 0z m-85.333334 0V512A213.333333 213.333333 0 0 1 298.666667 512v-42.666667z m-256-170.666666v-170.666667h85.333334v170.666667z"  horiz-adv-x="1024" />
      
      <glyph glyph-name="icon_unlock" unicode="&#59294;" d="M298.666667 469.333333h554.666666a42.666667 42.666667 0 0 0 42.666667-42.666666v-426.666667a42.666667 42.666667 0 0 0-42.666667-42.666667H170.666667a42.666667 42.666667 0 0 0-42.666667 42.666667V426.666667a42.666667 42.666667 0 0 0 42.666667 42.666666h42.666666V512a298.666667 298.666667 0 0 0 565.845334 133.589333l-76.330667-38.144A213.333333 213.333333 0 0 1 298.666667 512z m128-213.333333v-85.333333h170.666666v85.333333z"  horiz-adv-x="1024" />
      
      <glyph glyph-name="icon_ywgl" unicode="&#59291;" d="M465.792 34.3552c-67.456 0-122.3424 46.7456-122.3424 104.2176V290.816L242.688 340.7872A64.3584 64.3584 0 0 0 204.8 397.2608v218.3424a63.3856 63.3856 0 0 0 35.84 55.3984l104.96 55.808a59.392 59.392 0 0 0 27.648 6.8864 49.9456 49.9456 0 0 0 53.1456-45.824v-0.256l-1.9968-73.9072 85.4784-43.2128 85.7088 43.3408 1.9968 74.24A49.9712 49.9712 0 0 0 650.752 733.696a59.4688 59.4688 0 0 0 27.648-6.8864l104.96-55.7824a63.3856 63.3856 0 0 0 35.84-55.424v-218.3936a64.3072 64.3072 0 0 0-37.888-56.32l-100.7616-50.0736v-152.1664a100.7872 100.7872 0 0 0-32.2048-70.5536 125.44 125.44 0 0 0-90.1376-33.7408z m-62.5152 104.192a57.9072 57.9072 0 0 1 62.5152-51.6096h92.416a76.3392 76.3392 0 0 1 47.1808 17.7152l0.512 0.3328a43.52 43.52 0 0 1 14.7968 33.536v122.4448l-46.976-23.3472a141.1072 141.1072 0 0 0-123.4688 0l-46.976 23.3216zM271.7952 626.176a12.2112 12.2112 0 0 1-7.1424-10.4448v-218.3936a12.4672 12.4672 0 0 1 7.68-10.6496l207.5648-103.1936a73.984 73.984 0 0 1 64.3584 0l207.5648 103.1936a12.4672 12.4672 0 0 1 7.68 10.6496v218.2656a12.2112 12.2112 0 0 1-7.1424 10.4448L657.152 676.6336l-1.792-67.1744a45.056 45.056 0 0 0-26.1888-39.3728l-92.416-46.7712a60.7232 60.7232 0 0 0-53.76 0l-92.3904 46.7712a45.056 45.056 0 0 0-26.1632 39.4752v0.1792l1.792 66.56z m185.6256-212.1472a31.2064 31.2064 0 0 0-32.7424 29.312 31.1808 31.1808 0 0 0 32.7424 29.2352h109.1584a31.1808 31.1808 0 0 0 32.7424-29.2864 31.2064 31.2064 0 0 0-32.7424-29.312z m0 5.4528a25.7536 25.7536 0 0 0-27.3408 23.7312 25.7536 25.7536 0 0 1 27.3408-23.8592zM237.4656 495.9488v-119.8336l45.3632-27.0592s107.52-57.8816 138.6496-68.1984 52.864-31.4368 85.8368-31.744 74.3936 25.8304 92.7488 31.744 141.1328 68.1984 141.1328 68.1984l44.4416 27.0592v119.8336s-49.3824-27.264-87.7312-46.6176-115.5328-58.88-133.6064-66.048a126.6176 126.6176 0 0 0-56.9856-15.36 128.4608 128.4608 0 0 0-59.392 15.36c-23.6544 8.9344-96.768 48.64-130.9696 66.048s-79.488 46.6176-79.488 46.6176z"  horiz-adv-x="1024" />
      
      <glyph glyph-name="icon_grzx1" unicode="&#59289;" d="M396.0064 336.7424h249.6768q102.016 0 102.016-102.016v-59.6224q0-102.016-102.016-102.016h-249.8048q-102.016 0-102.016 102.016v59.6224q0.128 102.016 102.016 102.016zM489.344 408.3968a154.1888 154.1888 0 1 0 154.1888 154.1888 154.3936 154.3936 0 0 0-154.1888-154.1888z m0 254.0032a99.84 99.84 0 1 1 99.84-99.84 99.84 99.84 0 0 1-99.84 99.84zM206.4128 41.1392A27.2128 27.2128 0 0 0 179.2 68.352v109.056a195.5584 195.5584 0 0 0 59.4944 140.4928 202.24 202.24 0 0 0 142.5152 58.1376h221.6448a203.3152 203.3152 0 0 0 153.3952-69.6576 27.2128 27.2128 0 1 0-40.96-35.712 148.9664 148.9664 0 0 1-112.3584 50.9952h-221.6704a148.2496 148.2496 0 0 1-104.3968-42.624 141.568 141.568 0 0 1-43.1872-101.632v-109.1072a27.2128 27.2128 0 0 0-27.264-27.1616z m599.3216 121.3696h-145.92a27.2128 27.2128 0 0 0 0 54.4h145.92a27.2128 27.2128 0 1 0 0-54.4z m0-100.1728h-145.92a27.2128 27.2128 0 0 0 0 54.4h145.92a27.2128 27.2128 0 1 0 0-54.4z"  horiz-adv-x="1024" />
      
      <glyph glyph-name="icon_dorm" unicode="&#59290;" d="M938.676166-0.042747H85.323834v85.494823h42.690415V725.295336a42.690415 42.690415 0 0 0 42.804408 42.690415h597.323834a42.690415 42.690415 0 0 0 42.690416-42.690415v-213.338083h85.494823v-426.676167h42.690415z m-213.338083 85.494823h85.494824V426.633419H554.690415v-341.352333h85.494824V341.309585h85.494823z m0 426.676166V682.490927H213.338083v-597.323834h255.971502V511.957253z m-426.676166-85.494823h85.494824v-85.494824h-85.494824z m0-170.647668h85.494824v-85.494824h-85.494824z m0 341.352332h85.494824v-85.494824h-85.494824z"  horiz-adv-x="1024" />
      
      <glyph glyph-name="icon_fzxt" unicode="&#59128;" d="M323.4304 504.7552h377.1392q106.2912 0 106.2912-106.2912v-136.1408q0-106.2912-106.2912-106.2912H323.4304q-106.2912 0.0512-106.2912 106.2912v136.1408q0 106.2912 106.2912 106.2912zM765.7216 69.8368H258.2784A130.56 130.56 0 0 0 128 200.1152V460.6976a130.56 130.56 0 0 0 130.2784 130.2784h507.4432A130.56 130.56 0 0 0 896 460.6976v-260.5824a130.56 130.56 0 0 0-130.2784-130.2784zM258.2784 536.1152a75.52 75.52 0 0 1-75.4176-75.4176v-260.5824a75.52 75.52 0 0 1 75.4176-75.4176h507.4432a75.52 75.52 0 0 1 75.4176 75.4176V460.6976a75.52 75.52 0 0 1-75.4176 75.4176zM857.2416 350.8992h-236.0064v54.8352h236.0064a27.4176 27.4176 0 1 0 0-54.8352z m-481.7152 0H166.7328a27.4176 27.4176 0 1 0 0 54.8352h208.7936v-54.8096z m328.4736 207.36a27.4688 27.4688 0 0 0-27.4176 27.4688 76.416 76.416 0 0 1-76.2112 76.2112h-176.768a76.3648 76.3648 0 0 1-76.16-76.2112 27.4432 27.4432 0 1 0-54.8608 0A131.2 131.2 0 0 0 423.6032 716.8h176.768a131.2 131.2 0 0 0 131.0464-131.072 27.4688 27.4688 0 0 0-27.4176-27.4432zM566.8352 263.0912h-109.7216a109.7216 109.7216 0 1 0 0 219.4176h109.7216a109.7216 109.7216 0 1 0 0-219.4176z m-109.7216 164.5824a54.8608 54.8608 0 1 1 0-109.7216h109.7216a54.8608 54.8608 0 1 1 0 109.7216z"  horiz-adv-x="1024" />
      
      <glyph glyph-name="icon_zwgl" unicode="&#59231;" d="M248.576 529.28h38.784a30.4384 30.4384 0 0 0 34.432-34.432v-360.96a30.4384 30.4384 0 0 0-34.432-34.432H248.576a30.4384 30.4384 0 0 0-34.432 34.432v360.96a30.4384 30.4384 0 0 0 34.432 34.432zM478.7968 529.28h38.784a30.4384 30.4384 0 0 0 34.432-34.432v-360.96a30.4384 30.4384 0 0 0-34.432-34.432h-38.656a30.4384 30.4384 0 0 0-34.432 34.432v360.96a30.4384 30.4384 0 0 0 34.432 34.432zM723.9424 538.8288l37.9648 7.9104a30.4384 30.4384 0 0 0 40.7296-26.7008l73.5744-353.408a30.4384 30.4384 0 0 0-26.7008-40.7296l-37.9648-7.9104a30.4384 30.4384 0 0 0-40.7296 26.7008l-73.5744 353.408a30.4384 30.4384 0 0 0 26.8032 40.7296zM286.1056 73.5744H189.952A62.0032 62.0032 0 0 0 128 135.5264v481.28a62.0288 62.0288 0 0 0 61.952 61.952h96.1792a62.0288 62.0288 0 0 0 61.952-61.952v-481.28a62.0032 62.0032 0 0 0-61.9776-61.952zM189.952 623.6928a6.9376 6.9376 0 0 1-6.9376-6.9376v-481.28a6.9376 6.9376 0 0 1 6.9376-6.9376h96.1792a6.9376 6.9376 0 0 1 6.9376 6.9376v481.28a6.9376 6.9376 0 0 1-6.9376 6.9376zM205.0816 529.28a30.9504 30.9504 0 1 1 30.9504 30.9504 30.9504 30.9504 0 0 1-30.9504-30.9504zM518.2976 73.5744H422.144a62.0032 62.0032 0 0 0-61.952 61.952v481.28a62.0288 62.0288 0 0 0 61.952 61.952h96.1792a62.0288 62.0288 0 0 0 61.952-61.952v-481.28a62.0032 62.0032 0 0 0-61.9776-61.952z m-96.1792 550.1184a6.9376 6.9376 0 0 1-6.9376-6.9376v-481.28a6.9376 6.9376 0 0 1 6.9376-6.9376h96.1792a6.9376 6.9376 0 0 1 6.9376 6.9376v481.28a6.9376 6.9376 0 0 1-6.9376 6.9376zM437.2736 529.28a30.9504 30.9504 0 1 1 30.9504 30.9504 30.9504 30.9504 0 0 1-30.9504-30.9504zM739.6352 76.5696a62.0544 62.0544 0 0 0-60.7744 50.1504l-91.8272 472.3968a62.0032 62.0032 0 0 0 48.9984 72.6272l94.4128 18.3552a62.0032 62.0032 0 0 0 72.6272-48.9984l91.8016-472.3968a61.9008 61.9008 0 0 0-48.9984-72.6272l-94.3872-18.3552a61.8752 61.8752 0 0 0-11.8528-1.152z m2.56 559.6416a6.9632 6.9632 0 0 1-1.3568-0.128l-94.3872-18.3552a6.9376 6.9376 0 0 1-5.4784-8.1152l91.8272-472.3968a6.9376 6.9376 0 0 1 8.1152-5.4784l94.3872 18.3552a6.9376 6.9376 0 0 1 5.4784 8.1152l-91.8272 472.3968a6.9632 6.9632 0 0 1-6.6816 5.6064zM676.8128 533.4016a30.9504 30.9504 0 1 1 30.9504 30.9504 30.9504 30.9504 0 0 1-30.9504-30.9504zM310.9888 396.5952H155.4944a25.8048 25.8048 0 0 0 0 51.584h155.4944a25.8048 25.8048 0 1 0 0-51.584z m236.9536 0H392.448a25.8048 25.8048 0 0 0 0 51.584h155.4944a25.8048 25.8048 0 1 0 0-51.584z m107.6736-7.2192a25.7792 25.7792 0 0 0-4.8896 51.2l152.6528 29.6704a25.7792 25.7792 0 1 0 9.8304-50.6112l-152.6528-29.6704a25.6 25.6 0 0 0-4.9408-0.5888z"  horiz-adv-x="1024" />
      
      <glyph glyph-name="icon_dygl" unicode="&#59252;" d="M449.4592 507.2896h313.3952q102.8608 0 102.8608-102.8608v-167.0656q0-102.8608-102.8608-102.8608H449.4592q-102.8608 0-102.8608 102.8608v167.0656q0 102.8608 102.8608 102.8608zM765.7216 87.7824H258.2784A130.56 130.56 0 0 0 128 218.0608V560.9216A130.56 130.56 0 0 0 258.2784 691.2h507.4432A130.56 130.56 0 0 0 896 560.9216v-342.8608a130.56 130.56 0 0 0-130.2784-130.2784zM258.2784 636.3392a75.52 75.52 0 0 1-75.4176-75.4176v-342.8608a75.52 75.52 0 0 1 75.4176-75.4176h507.4432a75.52 75.52 0 0 1 75.4176 75.4176V560.9216a75.52 75.52 0 0 1-75.4176 75.4176zM371.5584 314.9312a137.1392 137.1392 0 1 0 137.1392 137.1392 137.2928 137.2928 0 0 0-137.1392-137.1392z m0 219.4176a82.2784 82.2784 0 1 1 82.2784-82.2784 82.2784 82.2784 0 0 1-82.2784 82.2784zM288.1024 202.4704a27.4176 27.4176 0 0 0-27.4176 27.4176v146.8416a27.4176 27.4176 0 1 0 54.8608 0v-106.3424l48 19.2256a27.4176 27.4176 0 0 0 20.8384-0.1792l43.2128-18.2272v105.5488a27.4176 27.4176 0 0 0 54.8608 0v-146.8416a27.4176 27.4176 0 0 0-38.0928-25.2672l-70.8608 29.9008-75.1872-30.1056a27.52 27.52 0 0 0-10.2144-1.9712z m459.3664 248.7552h-157.7984a27.4176 27.4176 0 1 0 0 54.8608h157.7984a27.4176 27.4176 0 1 0 0-54.8608z m0-145.7152h-157.7984a27.4176 27.4176 0 1 0 0 54.8608h157.7984a27.4176 27.4176 0 1 0 0-54.8608z"  horiz-adv-x="1024" />
      
      <glyph glyph-name="icon_rygl" unicode="&#59260;" d="M349.44 315.2896h251.7248q102.8608 0 102.8608-102.8608v-60.1088q0-102.8352-102.8608-102.8608H349.44q-102.8608 0-102.8608 102.8608v60.0576q0 102.912 102.8608 102.912zM443.52 405.8624a155.4688 155.4688 0 1 0 155.4688 155.4688 155.648 155.648 0 0 0-155.4688-155.4688z m0 256a100.608 100.608 0 1 1 100.608-100.608 100.608 100.608 0 0 1-100.608 100.6848z m0-401.0496l-42.0096-104.96a23.4752 23.4752 0 0 1 5.12-25.3184l20.224-20.224a23.4752 23.4752 0 0 1 33.28 0l20.224 20.224a23.4752 23.4752 0 0 1 5.12 25.3184zM469.0688 227.84h-50.9696a14.4896 14.4896 0 0 0-14.08 10.9824l-6.8608 27.6224a14.4896 14.4896 0 0 0 14.0544 17.92h64.768a14.4896 14.4896 0 0 0 14.0544-17.92l-6.912-27.6224a14.4896 14.4896 0 0 0-14.0544-10.9824zM731.7248 32.4864a27.4176 27.4176 0 0 0-27.4176 27.4176v75.8784 2.56c0 98.816-64.1792 179.2-143.0528 179.2h-235.3408c-78.848 0-143.0528-80.384-143.0528-179.2v-78.4896a27.4176 27.4176 0 0 0-54.8608 0v78.4896a256.6656 256.6656 0 0 0 56.32 163.584 199.68 199.68 0 0 0 62.8224 51.2 171.52 171.52 0 0 0 78.848 19.2512h235.2384a171.52 171.52 0 0 0 78.848-19.2512 199.5264 199.5264 0 0 0 62.8224-51.2 256 256 0 0 0 56.1408-160.8192 26.0608 26.0608 0 0 0 0.128-2.7136v-78.4896a27.4176 27.4176 0 0 0-27.4432-27.4176z m-102.912 364.3392a27.4176 27.4176 0 0 0-3.9424 54.5792 86.5024 86.5024 0 0 1 17.92 166.4 27.4176 27.4176 0 1 0 19.328 51.328 141.3632 141.3632 0 0 0-29.1328-272.1024 27.7248 27.7248 0 0 0-4.1728-0.2048z m239.744-333.3376a27.4176 27.4176 0 0 0-27.4176 27.4176v67.4048 2.432a178.7392 178.7392 0 0 1-33.92 107.136 116.9152 116.9152 0 0 1-78.1568 48.512 27.4432 27.4432 0 1 0 6.7072 54.4512 171.1104 171.1104 0 0 0 115.328-70.0416 233.856 233.856 0 0 0 44.8512-137.4464q0.128-1.28 0.128-2.56v-69.8368a27.4176 27.4176 0 0 0-27.4944-27.4432z"  horiz-adv-x="1024" />
      
      <glyph glyph-name="icon_sjzx" unicode="&#59287;" d="M781.4656 188.5952h-400.896a83.0464 83.0464 0 0 0-81.28 84.6592v237.056a82.9952 82.9952 0 0 0 81.28 84.6592h400.9216a83.0208 83.0208 0 0 0 81.28-84.6592v-237.056a83.0208 83.0208 0 0 0-81.3056-84.6592zM759.6288 135.424H264.3712A133.632 133.632 0 0 0 128 265.8048V586.4192A133.632 133.632 0 0 0 264.3712 716.8h495.2576A133.632 133.632 0 0 0 896 586.4192v-320.6144a133.632 133.632 0 0 0-136.3712-130.3808zM264.3712 659.3792a76.2368 76.2368 0 0 1-78.9504-72.96v-320.6144a76.2368 76.2368 0 0 1 78.9504-72.96h495.2576a76.2368 76.2368 0 0 1 78.9504 72.96V586.4192a76.2368 76.2368 0 0 1-78.9504 72.96z m535.7312-624.4608h-576a28.6976 28.6976 0 1 0 0 57.4208h576a28.6976 28.6976 0 1 0 0-57.4208zM299.2896 350.4384a89.2416 89.2416 0 0 0 167.424 42.9568l119.9616 37.1712a74.24 74.24 0 0 0-0.4608 8.3712c0 1.8944 0 3.7632 0.2048 5.6064l-100.0448 34.8416a63.2576 63.2576 0 1 0 21.4528 47.4368v-2.7648l98.6624-34.3296a73.8304 73.8304 0 1 0 2.304-103.8592l-131.2256-40.6528a89.216 89.216 0 0 0-178.2784 5.2224z m49.2288 0a39.9872 39.9872 0 1 1 39.9872 39.9872 39.9872 39.9872 0 0 1-39.9872-39.9872z m286.9248 88.6272a24.6272 24.6272 0 1 1 24.6016 24.6016 24.6016 24.6016 0 0 1-24.6016-24.6016z m-211.1232 87.7568a20.224 20.224 0 1 1 20.224 20.1984 20.224 20.224 0 0 1-20.224-20.1984z"  horiz-adv-x="1024" />
      
      <glyph glyph-name="icon_del_241" unicode="&#59285;" d="M298.666667 640V768a42.666667 42.666667 0 0 0 42.666666 42.666667h341.333334a42.666667 42.666667 0 0 0 42.666666-42.666667v-128h213.333334v-85.333333h-85.333334v-554.666667a42.666667 42.666667 0 0 0-42.666666-42.666667H213.333333a42.666667 42.666667 0 0 0-42.666666 42.666667V554.666667H85.333333V640z m273.664-341.333333l75.434666 75.434666-60.330666 60.330667L512 358.997333l-75.434667 75.434667-60.330666-60.330667L451.669333 298.666667l-75.434666-75.434667 60.330666-60.330667L512 238.336l75.434667-75.434667 60.330666 60.330667zM384 725.333333v-85.333333h256V725.333333z"  horiz-adv-x="1024" />
      
      <glyph glyph-name="icon_edit_241" unicode="&#59286;" d="M853.333333 810.666667a42.666667 42.666667 0 0 0 42.666667-42.666667v-160.298667l-384-384v-180.821333l180.949333-0.213333L896 245.674667V0a42.666667 42.666667 0 0 0-42.666667-42.666667H170.666667a42.666667 42.666667 0 0 0-42.666667 42.666667V768a42.666667 42.666667 0 0 0 42.666667 42.666667z m75.861334-290.474667l60.330666-60.330667L657.664 128H597.333333v60.245333l331.861334 331.861334zM512 384H298.666667v-85.333333h213.333333z m128 170.666667H298.666667v-85.333334h341.333333z"  horiz-adv-x="1024" />
      
      <glyph glyph-name="ic_eye" unicode="&#59142;" d="M50.389333 384C90.496 602.453333 281.941333 768 512 768c230.058667 0 421.461333-165.546667 461.610667-384-40.106667-218.453333-231.552-384-461.610667-384-230.058667 0-421.461333 165.546667-461.610667 384zM512 170.666667a213.333333 213.333333 0 1 1 0 426.666666 213.333333 213.333333 0 0 1 0-426.666666z m0 85.333333a128 128 0 1 0 0 256 128 128 0 0 0 0-256z"  horiz-adv-x="1024" />
      
      <glyph glyph-name="ic_eye_close_line" unicode="&#59149;" d="M398.592 94.634667l-82.389333 22.101333 33.578666 125.397333a468.821333 468.821333 0 0 0-138.112 79.872l-91.861333-91.904-60.373333 60.373334 91.904 91.861333a467.498667 467.498667 0 0 0-101.162667 216.32l83.968 15.317333C166.528 434.688 323.370667 298.666667 512 298.666667c188.586667 0 345.472 136.021333 377.856 315.306666l83.968-15.274666a467.498667 467.498667 0 0 0-101.12-216.362667l91.861333-91.861333-60.373333-60.373334-91.861333 91.904a468.821333 468.821333 0 0 0-138.112-79.872l33.578666-125.44-82.389333-22.058666-33.621333 125.44a472.405333 472.405333 0 0 0-159.573334 0l-33.621333-125.44z"  horiz-adv-x="1024" />
      
      <glyph glyph-name="ic_eye_line" unicode="&#59214;" d="M512 768c230.058667 0 421.461333-165.546667 461.610667-384-40.106667-218.453333-231.552-384-461.610667-384-230.058667 0-421.461333 165.546667-461.610667 384C90.496 602.453333 281.941333 768 512 768z m0-682.666667c179.2 0 334.592 123.946667 374.485333 298.666667a384.213333 384.213333 0 0 1-748.970666 0A384.213333 384.213333 0 0 1 512 85.333333z m0 106.666667a192 192 0 1 0 0 384 192 192 0 0 0 0-384z m0 85.333333a106.666667 106.666667 0 1 1 0 213.333334 106.666667 106.666667 0 0 1 0-213.333334z"  horiz-adv-x="1024" />
      
      <glyph glyph-name="ic_error_warning" unicode="&#59146;" d="M512-42.666667C276.352-42.666667 85.333333 148.352 85.333333 384S276.352 810.666667 512 810.666667s426.666667-191.018667 426.666667-426.666667-191.018667-426.666667-426.666667-426.666667z m-42.666667 298.666667v-85.333333h85.333334v85.333333h-85.333334z m0 341.333333v-256h85.333334V597.333333h-85.333334z"  horiz-adv-x="1024" />
      
      <glyph glyph-name="ic_time" unicode="&#59283;" d="M512-128C229.205333-128 0 101.205333 0 384S229.205333 896 512 896s512-229.205333 512-512-229.205333-512-512-512z m51.2 512V640h-102.4v-358.4H768V384h-204.8z"  horiz-adv-x="1024" />
      
      <glyph glyph-name="ic_time_line" unicode="&#59284;" d="M512-128C229.205333-128 0 101.205333 0 384S229.205333 896 512 896s512-229.205333 512-512-229.205333-512-512-512z m0 102.4a409.6 409.6 0 1 1 0 819.2 409.6 409.6 0 0 1 0-819.2z m51.2 409.6H768v-102.4h-307.2V640h102.4v-256z"  horiz-adv-x="1024" />
      
      <glyph glyph-name="ic_add_box_line" unicode="&#59281;" d="M94.805333 853.333333h834.389334C957.994667 853.333333 981.333333 829.994667 981.333333 801.194667v-834.389334c0-28.8-23.338667-52.138667-52.138666-52.138666H94.805333A52.138667 52.138667 0 0 0 42.666667-33.194667V801.194667C42.666667 829.994667 66.005333 853.333333 94.805333 853.333333z m52.138667-104.277333v-730.112h730.112V749.056H146.944z m312.917333-312.917333v208.64h104.277334v-208.64h208.64v-104.277334h-208.64v-208.64h-104.277334v208.64h-208.64v104.277334h208.64z"  horiz-adv-x="1024" />
      
      <glyph glyph-name="ic_add_box" unicode="&#59282;" d="M94.805333 853.333333h834.389334C957.994667 853.333333 981.333333 829.994667 981.333333 801.194667v-834.389334c0-28.8-23.338667-52.138667-52.138666-52.138666H94.805333A52.138667 52.138667 0 0 0 42.666667-33.194667V801.194667C42.666667 829.994667 66.005333 853.333333 94.805333 853.333333z m365.056-417.194666h-208.64v-104.277334h208.64v-208.64h104.277334v208.64h208.64v104.277334h-208.64v208.64h-104.277334v-208.64z"  horiz-adv-x="1024" />
      
      <glyph glyph-name="ic_right_double" unicode="&#59207;" d="M421.248 384L128 682.666667l83.754667 85.333333 377.045333-384-377.045333-384L128 85.333333zM728.448 384L435.2 682.666667l83.754667 85.333333L896 384l-377.045333-384-83.754667 85.333333z"  horiz-adv-x="1024" />
      
      <glyph glyph-name="ic_left_double" unicode="&#59209;" d="M295.552 384L588.8 682.666667l-83.754667 85.333333L128 384l377.045333-384 83.754667 85.333333zM602.752 384L896 682.666667l-83.754667 85.333333-377.045333-384 377.045333-384L896 85.333333z"  horiz-adv-x="1024" />
      
      <glyph glyph-name="ic_down1" unicode="&#59268;" d="M490.666667 310.272L739.584 554.666667 810.666667 484.864 490.666667 170.666667 170.666667 484.864 241.749333 554.666667z"  horiz-adv-x="1024" />
      
      <glyph glyph-name="ic_left1" unicode="&#59275;" d="M453.802667 362.666667L725.333333 80.597333 647.765333 0 298.666667 362.666667 647.765333 725.333333 725.333333 644.736z"  horiz-adv-x="1024" />
      
      <glyph glyph-name="ic_up1" unicode="&#59276;" d="M490.666667 457.728L241.749333 213.333333 170.666667 283.136 490.666667 597.333333l320-314.197333L739.584 213.333333z"  horiz-adv-x="1024" />
      
      <glyph glyph-name="ic_right1" unicode="&#59277;" d="M585.728 405.333333L341.333333 654.250667 411.136 725.333333 725.333333 405.333333 411.136 85.333333 341.333333 156.416z"  horiz-adv-x="1024" />
      
      <glyph glyph-name="ic_check1" unicode="&#59279;" d="M432 258.474667L871.04 682.666667 938.666667 617.386667 432 128 128 421.632l67.541333 65.28z"  horiz-adv-x="1024" />
      
      <glyph glyph-name="ic_close1" unicode="&#59280;" d="M533.333333 433.749333L782.250667 682.666667 853.333333 611.584 604.416 362.666667 853.333333 113.749333 782.250667 42.666667 533.333333 291.584 284.416 42.666667 213.333333 113.749333l248.917334 248.917334L213.333333 611.584 284.416 682.666667z"  horiz-adv-x="1024" />
      
      <glyph glyph-name="icon_close_xian" unicode="&#59278;" d="M512-42.666667a426.666667 426.666667 0 1 0 426.666667 426.666667 426.666667 426.666667 0 0 0-426.666667-426.666667z m0 85.333334a341.333333 341.333333 0 1 1-341.333333 341.333333 341.333333 341.333333 0 0 1 341.333333-341.333333z m0 401.664l120.661333 120.704 60.373334-60.373334L572.330667 384l120.704-120.661333-60.373334-60.373334L512 323.669333l-120.661333-120.704-60.373334 60.373334L451.669333 384 330.965333 504.661333l60.373334 60.373334z"  horiz-adv-x="1024" />
      
      <glyph glyph-name="icon_date" unicode="&#59274;" d="M725.333333 768h170.666667a42.666667 42.666667 0 0 0 42.666667-42.666667v-682.666666a42.666667 42.666667 0 0 0-42.666667-42.666667H128a42.666667 42.666667 0 0 0-42.666667 42.666667V725.333333a42.666667 42.666667 0 0 0 42.666667 42.666667h170.666667V853.333333h85.333333v-85.333333h256V853.333333h85.333333z m-85.333333-85.333333H384v-85.333334H298.666667V682.666667H170.666667v-170.666667h682.666666V682.666667h-128v-85.333334h-85.333333z m213.333333-256H170.666667v-341.333334h682.666666z"  horiz-adv-x="1024" />
      
      <glyph glyph-name="icon_subtract1" unicode="&#59273;" d="M213.333333 426.666667h597.333334v-85.333334H213.333333z"  horiz-adv-x="1024" />
      
      <glyph glyph-name="icon_dr" unicode="&#59271;" d="M128 85.333333h768v-85.333333H128zM554.666667 647.338667V170.666667h-85.333334V647.338667L210.304 388.266667l-60.330667 60.330666L512 810.666667l362.026667-362.026667-60.330667-60.373333L554.666667 647.253333z"  horiz-adv-x="1024" />
      
      <glyph glyph-name="icon_download1" unicode="&#59272;" d="M128 85.376h768v-85.312H128z m426.688 248.64l259.008 259.072 60.352-60.352L512 170.688 149.952 532.736l60.352 60.352L469.312 334.08V810.688h85.376z"  horiz-adv-x="1024" />
      
      <glyph glyph-name="icon_add_function" unicode="&#59269;" d="M469.333333 426.666667V682.666667h85.333334v-256h256v-85.333334h-256v-256h-85.333334v256H213.333333v85.333334z"  horiz-adv-x="1024" />
      
      <glyph glyph-name="icon_up" unicode="&#59266;" d="M853.319112-127.91467H170.680888a170.915545 170.915545 0 0 0-170.659556 170.659556v682.638223a170.659556 170.659556 0 0 0 170.659556 170.659556h682.638224a170.659556 170.659556 0 0 0 170.659556-170.659556v-682.638223a170.915545 170.915545 0 0 0-170.659556-170.659556z m-347.249532 615.654348l-207.223365-207.266031h414.574726z"  horiz-adv-x="1024" />
      
      <glyph glyph-name="icon_down" unicode="&#59267;" d="M874.593784-128h-725.272894a149.576869 149.576869 0 0 0-149.32089 149.32089v725.272894a149.576869 149.576869 0 0 0 149.32089 149.32089h725.272894a149.32089 149.32089 0 0 0 149.32089-149.32089v-725.272894a149.32089 149.32089 0 0 0-149.32089-149.32089zM289.298558 492.108324l216.216649-216.259311 216.472627 216.259311z"  horiz-adv-x="1024" />
      
      <glyph glyph-name="icon_defeated" unicode="&#59265;" d="M512-76.8a460.8 460.8 0 1 0 460.8 460.8 460.8 460.8 0 0 0-460.8-460.8z m0 525.952l-130.304 130.3552-65.2032-65.2032L446.848 384l-130.3552-130.304 65.2032-65.2032L512 318.848l130.304-130.3552 65.2032 65.2032L577.152 384l130.3552 130.304-65.2032 65.2032z"  horiz-adv-x="1024" />
      
      <glyph glyph-name="icon_hotline" unicode="&#59262;" d="M865.834667 541.226667a78.634667 78.634667 0 0 0 78.634666-78.634667v-157.269333a78.634667 78.634667 0 0 0-78.634666-78.634667h-41.770667A314.538667 314.538667 0 0 0 512-48.512v78.677333a235.861333 235.861333 0 0 1 235.904 235.861334V501.930667a235.904 235.904 0 0 1-471.765333 0v-275.2H158.208a78.634667 78.634667 0 0 0-78.634667 78.634666v157.226667a78.634667 78.634667 0 0 0 78.634667 78.634667h41.770667a314.538667 314.538667 0 0 0 624.128 0z m-520.533334-306.048l41.685334 66.688a236.117333 236.117333 0 0 1 250.026666 0l41.685334-66.688a314.709333 314.709333 0 0 0-333.354667 0z"  horiz-adv-x="1024" />
      
      <glyph glyph-name="icon_support" unicode="&#59263;" d="M227.413333 756.437333A149.333333 149.333333 0 0 0 418.133333 565.546667L880.938667 102.826667l-90.538667-90.496L327.68 475.008a149.333333 149.333333 0 0 0-190.805333 190.890667L232.277333 570.453333a64 64 0 1 1 90.496 90.496L227.370667 756.48zM669.866667 676.053333l135.765333 75.434667L865.834667 691.2l-75.434667-135.808-75.434667-15.104-90.453333-90.496-60.373333 60.330667 90.496 90.496 15.232 75.434666z m-301.824-331.861333l90.496-90.538667L247.466667 42.666667a64 64 0 0 0-94.72 85.76l4.266666 4.565333 211.2 211.2z"  horiz-adv-x="1024" />
      
      <glyph glyph-name="icon_copyright" unicode="&#59264;" d="M512 810.6496A426.6496 426.6496 0 1 0 85.3504 384 426.8032 426.8032 0 0 0 512 810.6496z m0-85.3504A341.3504 341.3504 0 1 1 853.3504 384 341.248 341.248 0 0 1 512 725.2992z m0-128a213.248 213.248 0 0 0 182.9888-103.5776l-73.1136-43.9296a128 128 0 1 1 0-131.7376l73.1648-43.8784a213.3504 213.3504 0 1 0-182.9376 323.072z"  horiz-adv-x="1024" />
      
      <glyph glyph-name="ic_develop" unicode="&#59257;" d="M128 128v-85.333333h768v85.333333zM296.533333 744.533333L85.333333 533.333333l211.2-211.2v422.4zM512 426.666667v-85.333334h384v85.333334z m0 298.666666v-85.333333h384V725.333333z"  horiz-adv-x="1024" />
      
      <glyph glyph-name="icon_pack_up" unicode="&#59258;" d="M896 128v-85.333333H128v85.333333zM727.466667 744.533333L938.666667 533.333333l-211.2-211.2v422.4zM512 426.666667v-85.333334H128v85.333334z m0 298.666666v-85.333333H128V725.333333z"  horiz-adv-x="1024" />
      
      <glyph glyph-name="ic_entrance_guard" unicode="&#59254;" d="M887.1424 494.336h-353.28a44.2368 44.2368 0 0 1-44.1344-44.1344v-44.1344h441.2928v43.8784a44.2368 44.2368 0 0 1-43.8784 44.3904z m-397.2096-264.8064a44.2368 44.2368 0 0 1 44.1344-44.1344h353.28a44.2368 44.2368 0 0 1 44.1344 44.1344v132.4032H490.1888zM534.0672 560.5376h176.5376V715.008a88.5248 88.5248 0 0 1-88.2688 88.2688h-441.344a88.5248 88.5248 0 0 1-88.2688-88.2688v-662.016a88.5248 88.5248 0 0 1 88.2688-88.2688h441.344a88.5248 88.5248 0 0 1 88.2688 88.2688v66.2016h-176.5376a109.2608 109.2608 0 0 0-110.336 110.336v220.672a109.2608 109.2608 0 0 0 110.336 110.336zM357.5296 450.2016a33.1264 33.1264 0 1 0-66.2016 0 242.0224 242.0224 0 0 0 242.7392 242.7392 33.1264 33.1264 0 0 0 0-66.2016 177.0496 177.0496 0 0 1-176.5376-176.5376z"  horiz-adv-x="1024" />
      
      <glyph glyph-name="ic_health_center" unicode="&#59255;" d="M638.1056 232.0896a341.6576 341.6576 0 0 0 212.5824-274.5856H173.312a341.6576 341.6576 0 0 0 212.5824 274.5856l126.1056-189.44zM768 810.6496v-256a256 256 0 0 0-512 0v256z m-85.3504-256H341.3504a170.6496 170.6496 0 0 1 341.2992 0z"  horiz-adv-x="1024" />
      
      <glyph glyph-name="icon_people_manager1" unicode="&#59250;" d="M512 298.666667v-341.333334H170.666667a341.333333 341.333333 0 0 0 341.333333 341.333334z m0 42.666666a256 256 0 1 0 256 256 256 256 0 0 0-256-256z m110.933333-247.978666a149.76 149.76 0 0 0 0 69.248l-42.325333 24.448 42.666667 73.898666 42.325333-24.448a149.333333 149.333333 0 0 0 59.733333 34.645334V320h85.333334v-48.853333a148.992 148.992 0 0 0 59.946666-34.645334l42.325334 24.448 42.666666-73.898666-42.325333-24.448a149.76 149.76 0 0 0 0-69.205334l42.325333-24.448-42.666666-73.898666-42.325334 24.448a149.333333 149.333333 0 0 0-59.733333-34.645334V-64H725.333333v48.853333a149.333333 149.333333 0 0 0-59.733333 34.645334l-42.325333-24.448-42.666667 73.898666 42.325333 24.405334zM768 170.666667a42.666667 42.666667 0 1 1 42.666667-42.666667 42.666667 42.666667 0 0 1-42.666667 42.666667z"  horiz-adv-x="1024" />
      
      <glyph glyph-name="ic_personal_center" unicode="&#59251;" d="M853.333333-42.666667H170.666667v85.333334a213.333333 213.333333 0 0 0 213.333333 213.333333h256a213.333333 213.333333 0 0 0 213.333333-213.333333z m-341.333333 384a256 256 0 1 0 256 256 256 256 0 0 0-256-256z"  horiz-adv-x="1024" />
      
      <glyph glyph-name="ic_auxiliary_system" unicode="&#59253;" d="M556.970667 209.066667v-134.997334h134.997333v-89.984H332.032v90.069334h134.997333V209.066667H152.064a45.013333 45.013333 0 0 0-45.013333 45.013333V704a45.013333 45.013333 0 0 0 45.013333 45.056h719.872A45.013333 45.013333 0 0 0 916.949333 704v-449.877333a45.013333 45.013333 0 0 0-45.013333-45.056zM332.032 524.074667v-89.984h359.936V524.074667z"  horiz-adv-x="1024" />
      
      <glyph glyph-name="ic_data_centre" unicode="&#59246;" d="M128 768h768a42.666667 42.666667 0 0 0 42.666667-42.666667v-682.666666a42.666667 42.666667 0 0 0-42.666667-42.666667H128a42.666667 42.666667 0 0 0-42.666667 42.666667V725.333333a42.666667 42.666667 0 0 0 42.666667 42.666667z m593.066667-426.666667H469.333333V593.066667a213.333333 213.333333 0 1 1 251.733334-251.733334z m0 85.333334A213.589333 213.589333 0 0 1 554.666667 593.066667V426.666667z"  horiz-adv-x="1024" />
      
      <glyph glyph-name="ic_general_services" unicode="&#59247;" d="M298.666667 682.666667V810.666667a42.666667 42.666667 0 0 0 42.666666 42.666666h341.333334a42.666667 42.666667 0 0 0 42.666666-42.666666v-128h170.666667a42.666667 42.666667 0 0 0 42.666667-42.666667v-597.333333a42.666667 42.666667 0 0 0-42.666667-42.666667H128a42.666667 42.666667 0 0 0-42.666667 42.666667V640a42.666667 42.666667 0 0 0 42.666667 42.666667z m-42.666667-341.333334V597.333333H170.666667v-256z m85.333333 256v-256h128v85.333334h85.333334v-85.333334h128V597.333333z m426.666667-256h85.333333V597.333333h-85.333333zM384 768v-85.333333h256V768z"  horiz-adv-x="1024" />
      
      <glyph glyph-name="ic_moral_education" unicode="&#59248;" d="M896 725.333333v-628.096a21.333333 21.333333 0 0 0-12.8-19.541333L512-86.613333l-371.2 164.266666a21.333333 21.333333 0 0 0-12.8 19.626667V725.333333H42.666667V810.666667h938.666666v-85.333334zM341.333333 384v-85.333333h341.333334v85.333333z m0 170.666667v-85.333334h341.333334V554.666667z"  horiz-adv-x="1024" />
      
      <glyph glyph-name="ic_select_class_system2" unicode="&#59249;" d="M853.333333-42.666667H277.333333A149.333333 149.333333 0 0 0 128 106.666667V682.666667a128 128 0 0 0 128 128h597.333333a42.666667 42.666667 0 0 0 42.666667-42.666667v-768a42.666667 42.666667 0 0 0-42.666667-42.666667z m-42.666666 85.333334v128H277.333333a64 64 0 0 1 0-128zM426.666667 725.333333v-341.333333l149.333333 85.333333 149.333333-85.333333V725.333333z"  horiz-adv-x="1024" />
      
      <glyph glyph-name="icon_custom" unicode="&#59242;" d="M273.664 213.333333L706.389333 646.058667l-60.330666 60.330666L213.333333 273.664V213.333333z m35.370667-85.333333H128v181.034667L615.893333 796.928a42.666667 42.666667 0 0 0 60.330667 0l120.704-120.704a42.666667 42.666667 0 0 0 0-60.330667zM128 42.666667h768v-85.333334H128z"  horiz-adv-x="1024" />
      
      <glyph glyph-name="icon_edit2" unicode="&#59245;" d="M714.965333 768l-85.333333-85.333333H213.333333v-597.333334h597.333334V501.632l85.333333 85.333333V42.666667a42.666667 42.666667 0 0 0-42.666667-42.666667H170.666667a42.666667 42.666667 0 0 0-42.666667 42.666667V725.333333a42.666667 42.666667 0 0 0 42.666667 42.666667z m159.061334 38.4L934.4 745.984l-392.192-392.192h-60.245333v60.458667z"  horiz-adv-x="1024" />
      
      <glyph glyph-name="icon_school_book" unicode="&#59238;" d="M850.858667 767.445333H184.021333a57.472 57.472 0 0 1-55.466666-59.733333v-239.957333a57.472 57.472 0 0 1 55.466666-59.733334h666.88a57.472 57.472 0 0 1 55.466667 59.733334v238.933333a58.24 58.24 0 0 1-55.509333 60.757333z m0-299.52H184.021333v238.933334h666.88z m-55.466667 179.541334h-222.549333l110.933333-119.978667z m55.466667-299.52H184.021333a57.472 57.472 0 0 1-55.466666-59.733334v-238.933333a57.472 57.472 0 0 1 55.466666-59.733333h666.88a57.472 57.472 0 0 1 55.466667 59.733333v238.933333a57.472 57.472 0 0 1-55.509333 59.776z m0-298.666667H184.021333v238.933333h666.88z m-55.466667 179.541333h-222.549333l110.933333-119.978666zM184.021333 771.712h666.88a62.421333 62.421333 0 0 0 59.733334-64.682667v-238.933333a61.952 61.952 0 0 0-59.733334-64H184.021333a61.952 61.952 0 0 0-59.733333 64V707.712a61.952 61.952 0 0 0 59.733333 64z m666.88-359.082667a53.418667 53.418667 0 0 1 51.2 55.466667v238.933333a53.888 53.888 0 0 1-51.2 56.149334H184.021333a53.418667 53.418667 0 0 1-51.2-55.466667v-239.957333a53.418667 53.418667 0 0 1 51.2-55.466667z m-671.146666 298.666667h675.413333v-247.466667H179.754667z m666.88-8.533333H188.288v-230.4h658.346667z m-283.477334-51.2h242.133334l-121.514667-130.517334z m222.506667-8.533334h-203.008l101.12-109.44z m-601.6-290.986666h666.88a61.952 61.952 0 0 0 59.733333-64v-238.933334a61.952 61.952 0 0 0-59.733333-64H184.021333a61.952 61.952 0 0 0-59.733333 64v238.933334a61.952 61.952 0 0 0 59.733333 64.213333z m666.88-358.4a53.418667 53.418667 0 0 1 51.2 55.466666v238.933334a53.418667 53.418667 0 0 1-51.2 55.466666H184.021333a53.418667 53.418667 0 0 1-51.2-55.466666v-238.933334a53.418667 53.418667 0 0 1 51.2-55.466666z m-671.146667 298.666666h675.413334v-247.466666H179.754667z m666.88-8.533333H188.288v-230.4h658.346667z m-283.477333-51.2h242.133333l-121.514666-130.517333z m222.506667-8.533333h-203.008l101.12-109.44z"  horiz-adv-x="1024" />
      
      <glyph glyph-name="icon_paike" unicode="&#59239;" d="M273.706667 832.128v-86.186667H117.034667v-810.069333h789.930666V745.941333h-156.544v86.186667h-74.752v-86.186667H348.501333v86.186667z m558.506666-821.461333H191.786667V511.829333h640.384z m0 576H191.786667V671.36h640.384zM273.664 839.424h74.752a7.296 7.296 0 0 0 7.296-7.296v-78.890667h312.618667V832.128a7.296 7.296 0 0 0 7.296 7.296h74.752a7.296 7.296 0 0 0 7.296-7.296v-78.890667h149.333333a7.296 7.296 0 0 0 7.296-7.296v-810.069333a7.296 7.296 0 0 0-7.296-7.296H117.034667a7.296 7.296 0 0 0-7.296 7.296V745.941333a7.296 7.296 0 0 0 7.296 7.296h149.333333V832.128a7.296 7.296 0 0 0 7.296 7.296z m67.498667-14.592H280.96v-78.890667a7.296 7.296 0 0 0-7.296-7.296h-149.333333v-795.477333h775.338666V738.645333h-149.333333a7.296 7.296 0 0 0-7.296 7.296V824.832h-60.202667v-78.890667a7.296 7.296 0 0 0-7.296-7.296H348.373333a7.296 7.296 0 0 0-7.296 7.296z m-149.333334-146.261333h640.384a7.296 7.296 0 0 0 7.296-7.296v-84.693334a7.296 7.296 0 0 0-7.296-7.296H191.786667a7.296 7.296 0 0 0-7.296 7.296V671.317333a7.296 7.296 0 0 0 7.296 7.296z m633.088-14.592H199.082667v-69.888h625.792z m-633.088-145.066667h640.384a7.296 7.296 0 0 0 7.296-7.296v-501.162667a7.296 7.296 0 0 0-7.296-7.296H191.786667a7.296 7.296 0 0 0-7.296 7.296V511.829333a7.296 7.296 0 0 0 7.296 7.296z m633.088-14.592H199.082667v-486.4h625.792zM309.418667 375.808h84.48v-84.48h-84.48z m0-180.352h84.48v-84.48h-84.48z m160.341333 180.352h84.48v-84.48h-84.48z m0-180.352h84.48v-84.48h-84.48z m160.469333 180.352h84.48v-84.48h-84.48z m0-180.352h84.48v-84.48h-84.48zM309.418667 383.061333h84.48a7.296 7.296 0 0 0 7.296-7.296v-84.48a7.296 7.296 0 0 0-7.296-7.296h-84.48a7.296 7.296 0 0 0-7.296 7.296v84.48a7.296 7.296 0 0 0 7.296 7.296z m77.184-14.592H316.714667v-69.888h69.888z m83.157333 14.592h84.48a7.296 7.296 0 0 0 7.296-7.296v-84.48a7.296 7.296 0 0 0-7.296-7.296h-84.48a7.296 7.296 0 0 0-7.296 7.296v84.48a7.296 7.296 0 0 0 7.296 7.296z m77.184-14.592h-69.888v-69.888h69.888z m83.285333 14.592h84.48a7.296 7.296 0 0 0 7.296-7.296v-84.48a7.296 7.296 0 0 0-7.296-7.296h-84.48a7.296 7.296 0 0 0-7.296 7.296v84.48a7.296 7.296 0 0 0 7.296 7.296z m77.184-14.592h-69.930666v-69.888h69.888z m-397.994666-165.76h84.48a7.296 7.296 0 0 0 7.296-7.296v-84.48a7.296 7.296 0 0 0-7.296-7.296h-84.48a7.296 7.296 0 0 0-7.296 7.296v84.48a7.296 7.296 0 0 0 7.296 7.296z m77.184-14.592H316.714667v-69.888h69.888z m83.157333 14.592h84.48a7.296 7.296 0 0 0 7.296-7.296v-84.48a7.296 7.296 0 0 0-7.296-7.296h-84.48a7.296 7.296 0 0 0-7.296 7.296v84.48a7.296 7.296 0 0 0 7.296 7.296z m77.184-14.592h-69.888v-69.888h69.888z m83.285333 14.592h84.48a7.296 7.296 0 0 0 7.296-7.296v-84.48a7.296 7.296 0 0 0-7.296-7.296h-84.48a7.296 7.296 0 0 0-7.296 7.296v84.48a7.296 7.296 0 0 0 7.296 7.296z m77.184-14.592h-69.930666v-69.888h69.888z"  horiz-adv-x="1024" />
      
      </font>
</defs>
</svg>
